<?xml version="1.0" standalone="no"?>
<!DOCTYPE svg PUBLIC "-//W3C//DTD SVG 20010904//EN"
 "http://www.w3.org/TR/2001/REC-SVG-20010904/DTD/svg10.dtd">
<svg version="1.0" xmlns="http://www.w3.org/2000/svg"
 width="200.000000pt" height="200.000000pt" viewBox="0 0 200.000000 200.000000"
 preserveAspectRatio="xMidYMid meet">
<metadata>
Created by potrace 1.14, written by Peter Selinger 2001-2017
</metadata>
<g transform="translate(0.000000,200.000000) scale(0.100000,-0.100000)"
fill="#000000" stroke="none">
<path d="M150 1979 c-62 -28 -105 -72 -129 -133 -21 -50 -21 -62 -19 -861 3
-808 3 -810 25 -850 28 -53 68 -89 125 -115 46 -20 59 -20 850 -20 l803 0 50
24 c59 27 106 77 129 137 15 40 16 120 14 854 l-3 810 -22 41 c-30 56 -94 109
-148 123 -30 8 -291 11 -837 11 -776 0 -794 -1 -838 -21z"/>
</g>
</svg>
