<?xml version="1.0" standalone="no"?>
<!DOCTYPE svg PUBLIC "-//W3C//DTD SVG 20010904//EN"
 "http://www.w3.org/TR/2001/REC-SVG-20010904/DTD/svg10.dtd">
<svg version="1.0" xmlns="http://www.w3.org/2000/svg"
 width="700.000000pt" height="700.000000pt" viewBox="0 0 700.000000 700.000000"
 preserveAspectRatio="xMidYMid meet">
<metadata>
Created by potrace 1.14, written by Peter Selinger 2001-2017
</metadata>
<g transform="translate(0.000000,700.000000) scale(0.100000,-0.100000)"
fill="#000000" stroke="none">
<path d="M1323 6080 c-51 -6 -89 -17 -133 -41 -112 -60 -158 -142 -171 -308
-12 -153 -11 -4339 1 -4430 11 -81 30 -123 73 -155 27 -20 41 -21 373 -24
l344 -3 2 1823 3 1823 23 75 c59 190 156 301 318 362 l59 23 1009 3 1008 3 -4
287 c-4 236 -8 296 -22 337 -36 103 -100 169 -201 207 l-60 23 -1275 1 c-701
1 -1307 -2 -1347 -6z"/>
<path d="M5313 6080 c-117 -21 -249 -94 -327 -181 -59 -65 -90 -120 -122 -215
-23 -71 -26 -89 -21 -189 5 -126 21 -185 74 -273 71 -117 179 -206 309 -254
49 -19 80 -22 184 -22 104 0 135 3 184 22 183 68 318 212 371 396 20 70 23
201 5 277 -44 194 -207 366 -399 423 -69 20 -191 28 -258 16z"/>
<path d="M6018 5435 c-24 -198 -159 -384 -343 -472 -215 -102 -447 -76 -641
70 -93 70 -171 182 -211 302 l-13 40 5 -42 c19 -150 121 -306 266 -406 162
-111 409 -128 591 -41 187 90 308 250 343 452 9 51 15 107 13 125 -2 23 -5 15
-10 -28z"/>
<path d="M4840 2875 l0 -1756 443 3 c398 3 447 5 489 22 66 25 141 95 175 164
l28 57 0 1510 0 1510 -28 57 c-34 69 -109 139 -175 164 -42 17 -91 19 -489 22
l-443 3 0 -1756z"/>
<path d="M2593 4446 c-60 -30 -126 -68 -145 -85 -52 -46 -81 -120 -76 -195 4
-57 51 -156 679 -1444 495 -1013 684 -1393 710 -1419 47 -50 102 -73 173 -73
50 0 76 7 160 47 134 61 178 94 212 156 24 43 29 64 28 117 l0 65 -673 1380
c-370 759 -685 1396 -700 1415 -41 53 -121 90 -196 90 -55 0 -75 -6 -172 -54z"/>
<path d="M4792 4070 c-1 -201 -7 -781 -12 -1290 -5 -509 -10 -1091 -10 -1293
-2 -367 -1 -368 22 -415 31 -61 59 -80 143 -92 108 -15 684 -12 776 4 138 25
239 97 297 213 47 94 56 161 54 428 -7 1103 -24 2577 -31 2605 -5 20 -9 -565
-10 -1382 -1 -1007 -4 -1432 -12 -1470 -33 -156 -145 -262 -306 -288 -32 -6
-248 -10 -480 -10 l-423 0 -3 1677 c-1 923 -3 1514 -5 1313z"/>
<path d="M4390 1550 c-9 -89 -47 -168 -104 -215 -23 -19 -96 -60 -162 -92
-112 -55 -123 -58 -194 -58 -61 0 -86 5 -135 28 l-60 28 34 -35 c37 -38 103
-70 168 -81 55 -9 130 13 246 71 99 50 169 109 199 168 24 46 34 140 20 176
-6 14 -11 19 -12 10z"/>
<path d="M1255 1070 c95 -10 424 -10 455 0 14 4 -99 8 -250 7 -173 0 -249 -3
-205 -7z"/>
<path d="M6549 583 c-13 -16 -12 -17 4 -4 16 13 21 21 13 21 -2 0 -10 -8 -17
-17z"/>
<path d="M470 551 c0 -23 167 -151 261 -201 110 -57 228 -91 390 -112 153 -19
4605 -19 4758 0 265 34 451 116 614 270 49 47 48 65 -1 20 -136 -123 -338
-210 -557 -239 -143 -20 -4745 -21 -4877 -1 -224 33 -410 114 -547 237 -23 21
-41 32 -41 26z"/>
</g>
</svg>
