<?xml version="1.0" standalone="no"?>
<!DOCTYPE svg PUBLIC "-//W3C//DTD SVG 20010904//EN"
 "http://www.w3.org/TR/2001/REC-SVG-20010904/DTD/svg10.dtd">
<svg version="1.0" xmlns="http://www.w3.org/2000/svg"
 width="416.000000pt" height="416.000000pt" viewBox="0 0 416.000000 416.000000"
 preserveAspectRatio="xMidYMid meet">
<metadata>
Created by potrace 1.14, written by Peter Selinger 2001-2017
</metadata>
<g transform="translate(0.000000,416.000000) scale(0.100000,-0.100000)"
fill="#000000" stroke="none">
<path d="M430 4111 c-36 -9 -90 -30 -120 -46 -73 -40 -177 -146 -217 -220 -66
-125 -62 -28 -62 -1765 0 -1737 -4 -1640 62 -1765 42 -79 149 -186 225 -224
126 -63 32 -60 1762 -60 1730 0 1636 -3 1762 60 76 38 183 145 225 224 66 125
62 28 62 1765 0 1737 4 1640 -62 1765 -41 77 -145 181 -222 222 -125 66 -27
62 -1770 62 -1450 -1 -1585 -2 -1645 -18z m710 -189 c-91 -63 -156 -168 -166
-267 -4 -39 15 -161 30 -188 34 -63 96 -137 126 -151 8 -3 33 -17 55 -31 56
-34 168 -48 240 -30 61 15 136 57 180 100 69 67 108 166 106 268 -4 130 -58
224 -181 312 l-34 25 1089 -2 1090 -3 56 -28 c66 -32 132 -99 162 -165 l22
-47 2 -1461 c2 -1280 1 -1461 -12 -1461 -18 0 -18 2 -5 28 6 10 8 19 6 19 -3
0 -12 -13 -21 -29 -14 -28 -14 -30 5 -26 11 2 22 0 25 -6 6 -8 -8 -13 -28 -10
-5 1 -6 -2 -3 -7 2 -4 1 -14 -4 -22 -7 -11 -12 -11 -23 -2 -10 9 -14 9 -14 -1
0 -6 -2 -16 -3 -22 -6 -23 1 -56 10 -50 5 3 6 13 3 22 -5 12 -2 15 10 10 9 -3
17 -2 17 3 0 6 -7 10 -15 10 -8 0 -15 4 -15 8 0 4 9 8 20 8 11 0 20 -6 20 -14
0 -22 -54 -82 -73 -82 -10 0 -15 -4 -12 -10 14 -23 14 -49 -1 -43 -8 3 -14 9
-14 15 0 5 -5 6 -11 3 -7 -5 -2 -17 13 -33 18 -21 19 -23 3 -12 -11 8 -24 21
-28 27 -4 7 -13 13 -19 13 -7 0 -6 -5 2 -15 8 -9 9 -15 2 -15 -6 0 -14 5 -18
12 -9 15 23 37 47 33 10 -2 19 1 19 7 0 5 -7 8 -15 4 -8 -3 -15 -1 -15 4 0 6
7 10 15 10 8 0 15 4 15 9 0 5 9 7 20 4 21 -5 28 11 10 22 -6 4 -7 11 -4 17 4
7 2 8 -5 4 -9 -6 -9 -11 0 -22 7 -9 8 -14 1 -14 -6 0 -14 5 -17 10 -3 6 -12
10 -18 10 -8 0 -8 -3 2 -9 8 -5 9 -11 3 -15 -6 -4 -15 1 -20 10 -6 11 -11 13
-16 5 -4 -6 -2 -11 3 -11 6 0 11 -5 11 -11 0 -6 -7 -9 -15 -6 -8 4 -17 1 -21
-5 -4 -6 -3 -8 4 -4 6 3 13 2 17 -4 6 -9 -8 -14 -28 -11 -5 1 -6 -2 -3 -7 2
-4 1 -14 -4 -22 -7 -11 -12 -11 -23 -2 -15 13 -18 5 -17 -51 0 -17 -4 -26 -10
-22 -6 3 -7 11 -4 17 4 7 2 8 -5 4 -9 -6 -9 -11 0 -22 7 -9 8 -14 1 -14 -6 0
-14 5 -17 10 -3 6 -12 10 -18 10 -7 0 -6 -4 3 -10 14 -9 7 -14 -13 -11 -5 1
-5 -4 -2 -10 5 -7 11 -7 17 -1 6 6 17 8 25 5 17 -7 43 26 35 46 -4 10 -1 13
11 8 9 -3 17 -2 17 3 0 6 -7 10 -15 10 -8 0 -15 4 -15 8 0 4 9 8 21 8 16 0 20
-5 16 -23 -2 -13 0 -23 4 -23 5 0 9 7 9 15 0 15 32 16 46 2 4 -3 -3 -4 -15 -2
-18 3 -21 0 -16 -15 3 -10 1 -21 -4 -25 -7 -4 -8 1 -4 12 5 16 4 16 -14 -2
-11 -11 -19 -23 -16 -27 2 -5 0 -8 -5 -8 -10 0 -12 -30 -3 -45 3 -6 -1 -3 -11
7 -9 10 -22 18 -30 19 -7 0 -3 4 10 9 12 5 22 14 22 20 0 7 -5 8 -12 3 -23
-15 -78 -31 -78 -23 0 13 -29 20 -36 8 -4 -6 -3 -8 4 -4 6 3 13 2 17 -4 6 -9
-8 -14 -28 -11 -5 1 -6 -2 -3 -7 2 -4 1 -14 -4 -22 -7 -11 -12 -11 -23 -2 -15
13 -18 5 -17 -51 0 -17 -4 -26 -10 -22 -6 3 -7 11 -4 17 4 7 2 8 -5 4 -9 -6
-9 -11 0 -22 7 -9 8 -14 1 -14 -6 0 -14 5 -17 10 -3 6 -12 10 -18 10 -7 0 -6
-4 3 -10 14 -9 7 -14 -13 -11 -5 1 -6 -3 -2 -9 4 -7 11 -8 18 -2 7 5 21 6 32
1 28 -11 35 -11 35 2 0 5 -4 8 -8 5 -7 -4 -8 21 -3 75 1 4 33 4 49 0 1 -1 -2
-10 -8 -21 -7 -14 -7 -20 0 -20 5 0 10 7 10 15 0 16 33 16 47 0 5 -4 -2 -5
-15 -2 -19 4 -22 2 -17 -13 3 -10 1 -21 -4 -25 -7 -4 -8 1 -4 12 5 16 4 16
-14 -2 -11 -11 -19 -23 -16 -27 2 -5 -1 -8 -6 -8 -6 0 -10 -5 -8 -11 1 -6 -12
-12 -31 -13 -17 0 -32 2 -32 7 0 4 10 7 22 7 12 0 19 3 15 6 -9 10 -59 -5 -52
-16 3 -5 -575 -8 -1487 -7 l-1493 2 -56 28 c-66 32 -132 99 -162 165 l-22 47
0 1595 0 1595 26 55 c43 91 124 157 216 179 21 5 188 9 372 10 l334 1 -53 -38z
m2772 -3169 c-10 -4 -10 -8 -1 -19 8 -9 8 -14 1 -14 -15 0 -25 18 -17 30 3 6
12 10 18 9 8 0 8 -2 -1 -6z m3 -67 c0 -13 -4 -28 -8 -32 -4 -5 -5 0 -1 11 7
20 7 20 -13 0 -11 -11 -19 -23 -16 -27 2 -5 0 -8 -5 -8 -10 0 -12 -30 -3 -45
3 -6 -1 -4 -9 5 -9 10 -22 19 -30 23 -13 5 -13 6 0 6 16 1 70 63 70 80 0 6 4
11 8 11 4 0 8 -11 7 -24z m5 -52 c0 -8 -19 -13 -24 -6 -3 5 1 9 9 9 8 0 15 -2
15 -3z m-25 -23 c3 -5 2 -12 -3 -15 -5 -3 -9 1 -9 9 0 17 3 19 12 6z m-34 -48
c13 -17 13 -17 -6 -3 -11 8 -22 16 -24 17 -2 2 0 3 6 3 6 0 17 -8 24 -17z
m-51 -53 c18 -12 2 -12 -25 0 -13 6 -15 9 -5 9 8 0 22 -4 30 -9z m-24 -22 c4
-7 3 -10 -1 -5 -5 4 -16 0 -26 -9 -13 -12 -19 -12 -25 -3 -4 7 -3 10 3 6 6 -4
16 0 23 8 15 18 17 18 26 3z m-116 -51 c12 -4 11 -6 -3 -6 -10 -1 -16 -5 -12
-10 3 -5 1 -12 -5 -16 -6 -4 -7 -12 -3 -18 9 -16 -30 14 -40 31 -4 6 -13 12
-19 12 -7 0 -6 -5 2 -15 8 -9 9 -15 2 -15 -6 0 -14 5 -18 12 -9 15 23 37 47
33 10 -2 19 2 19 8 0 8 2 9 8 1 4 -6 14 -14 22 -17z m65 14 c3 -5 2 -12 -3
-15 -5 -3 -9 1 -9 9 0 17 3 19 12 6z m-34 -48 c13 -17 13 -17 -6 -3 -11 8 -22
16 -24 17 -2 2 0 3 6 3 6 0 17 -8 24 -17z m-45 -59 c19 -15 19 -15 -1 -6 -11
5 -27 12 -35 15 -13 5 -13 6 1 6 8 1 24 -6 35 -15z m-30 -16 c4 -7 3 -10 -1
-5 -5 4 -16 0 -26 -9 -13 -12 -19 -12 -25 -3 -4 7 -3 10 3 6 6 -4 16 0 23 8
15 18 17 18 26 3z"/>
<path d="M602 3237 c-20 -21 -22 -34 -22 -148 0 -179 -16 -169 273 -169 l227
0 0 -1134 c0 -1131 0 -1133 21 -1160 l20 -26 228 0 c225 0 228 0 249 23 l22
23 0 1137 0 1137 848 0 849 0 21 23 c20 21 22 34 22 148 0 118 -1 127 -23 147
l-23 22 -847 0 -847 0 0 -170 0 -170 -270 0 -270 0 0 170 0 170 -228 0 c-226
0 -229 0 -250 -23z"/>
<path d="M1985 2803 c-16 -3 -38 -12 -47 -20 -17 -15 -18 -80 -18 -1084 0
-957 2 -1069 16 -1083 12 -12 37 -16 112 -16 53 0 104 5 112 10 13 8 16 67 20
397 l5 388 219 -2 c120 -1 224 -4 231 -7 11 -4 62 -93 203 -356 19 -36 45 -83
57 -105 13 -22 46 -83 73 -135 106 -204 121 -227 151 -240 46 -19 233 -10 255
12 10 10 14 18 10 18 -3 0 -1 7 6 15 16 19 6 100 -15 121 -13 13 -15 144 -15
1031 0 929 -2 1018 -17 1035 -24 27 -202 27 -226 0 -15 -17 -17 -90 -19 -796
l-3 -778 -44 79 c-24 43 -60 107 -79 143 -20 36 -46 82 -59 102 -13 21 -23 39
-23 41 0 2 -27 53 -61 113 -34 60 -75 134 -92 164 -16 30 -41 72 -54 92 -12
21 -23 40 -23 42 0 2 -33 62 -73 133 -40 70 -136 241 -212 378 -77 138 -153
265 -171 283 -31 31 -34 32 -110 31 -44 -1 -92 -4 -109 -6z m372 -888 c111
-205 148 -281 138 -285 -8 -3 -81 -5 -162 -5 l-148 0 -2 305 c-2 245 0 301 10
285 6 -11 80 -146 164 -300z"/>
<path d="M3840 795 c-11 -13 -10 -14 4 -9 9 3 16 10 16 15 0 13 -6 11 -20 -6z"/>
<path d="M3783 765 c0 -8 4 -12 9 -9 5 3 6 10 3 15 -9 13 -12 11 -12 -6z"/>
<path d="M3795 732 c13 -9 18 -32 7 -32 -4 0 -14 6 -21 13 -11 10 -11 8 0 -10
10 -16 16 -19 26 -11 7 5 10 14 7 19 -3 5 1 9 8 9 9 0 9 3 -2 10 -18 12 -40
14 -25 2z"/>
<path d="M3679 633 c-13 -16 -12 -17 4 -4 9 7 17 15 17 17 0 8 -8 3 -21 -13z"/>
<path d="M3621 543 c7 -12 15 -20 18 -17 3 2 -3 12 -13 22 -17 16 -18 16 -5
-5z"/>
<path d="M3703 508 c-2 -16 1 -18 10 -9 7 7 8 14 1 21 -6 6 -10 2 -11 -12z"/>
<path d="M3461 383 c7 -12 15 -20 18 -17 3 2 -3 12 -13 22 -17 16 -18 16 -5
-5z"/>
<path d="M3544 360 c-1 -16 2 -28 6 -25 9 6 10 55 1 55 -3 0 -7 -13 -7 -30z"/>
<path d="M3616 431 c-3 -5 1 -14 8 -20 18 -15 28 0 10 16 -7 7 -15 9 -18 4z"/>
</g>
</svg>
