<svg xmlns="http://www.w3.org/2000/svg" version="1.1" xmlns:xlink="http://www.w3.org/1999/xlink"
    xmlns:svgjs="http://svgjs.dev/svgjs" viewBox="0 0 800 800">
    <circle r="11" cx="20" cy="295" fill="hsl(217, 75%, 70%)" opacity="0.77"></circle>
    <circle r="9.5" cx="780" cy="419" fill="hsl(157, 75%, 70%)" opacity="0.79"></circle>
    <circle r="6" cx="504" cy="786" fill="hsl(123, 75%, 70%)" opacity="0.26"></circle>
    <circle r="5" cx="390" cy="455" fill="hsl(29, 75%, 70%)" opacity="0.34"></circle>
    <circle r="9" cx="402" cy="105" fill="hsl(119, 75%, 70%)" opacity="0.89"></circle>
    <circle r="7.5" cx="521" cy="616" fill="hsl(144, 75%, 70%)" opacity="0.89"></circle>
    <circle r="10.5" cx="235" cy="224" fill="hsl(168, 75%, 70%)" opacity="0.29"></circle>
    <circle r="5" cx="360" cy="296" fill="hsl(44, 75%, 70%)" opacity="0.77"></circle>
    <circle r="13" cx="30" cy="149" fill="hsl(205, 75%, 70%)" opacity="0.93"></circle>
    <circle r="3.5" cx="465" cy="736" fill="hsl(67, 75%, 70%)" opacity="0.65"></circle>
    <circle r="13.5" cx="18" cy="478" fill="hsl(217, 75%, 70%)" opacity="0.28"></circle>
    <circle r="7.5" cx="331" cy="745" fill="hsl(62, 75%, 70%)" opacity="0.53"></circle>
    <circle r="14" cx="84" cy="485" fill="hsl(230, 75%, 70%)" opacity="0.18"></circle>
    <circle r="6.5" cx="325" cy="286" fill="hsl(73, 75%, 70%)" opacity="0.46"></circle>
    <circle r="9.5" cx="60" cy="230" fill="hsl(226, 75%, 70%)" opacity="0.23"></circle>
    <circle r="8" cx="678" cy="130" fill="hsl(262, 75%, 70%)" opacity="0.97"></circle>
    <circle r="9" cx="134" cy="593" fill="hsl(232, 75%, 70%)" opacity="0.92"></circle>
    <circle r="4" cx="341" cy="367" fill="hsl(52, 75%, 70%)" opacity="0.52"></circle>
    <circle r="5.5" cx="788" cy="698" fill="hsl(141, 75%, 70%)" opacity="0.95"></circle>
    <circle r="7" cx="493" cy="439" fill="hsl(102, 75%, 70%)" opacity="0.28"></circle>
    <circle r="2" cx="393" cy="496" fill="hsl(29, 75%, 70%)" opacity="0.52"></circle>
    <circle r="4.5" cx="384" cy="355" fill="hsl(32, 75%, 70%)" opacity="0.98"></circle>
    <circle r="9.5" cx="259" cy="400" fill="hsl(140, 75%, 70%)" opacity="0.83"></circle>
    <circle r="10" cx="313" cy="577" fill="hsl(73, 75%, 70%)" opacity="0.43"></circle>
    <circle r="4" cx="519" cy="314" fill="hsl(144, 75%, 70%)" opacity="0.53"></circle>
    <circle r="5.5" cx="395" cy="777" fill="hsl(29, 75%, 70%)" opacity="0.14"></circle>
    <circle r="7.5" cx="183" cy="689" fill="hsl(212, 75%, 70%)" opacity="0.75"></circle>
    <circle r="10.5" cx="715" cy="129" fill="hsl(233, 75%, 70%)" opacity="0.98"></circle>
    <circle r="15" cx="139" cy="250" fill="hsl(229, 75%, 70%)" opacity="0.92"></circle>
    <circle r="5" cx="497" cy="478" fill="hsl(102, 75%, 70%)" opacity="0.97"></circle>
    <circle r="6" cx="459" cy="685" fill="hsl(53, 75%, 70%)" opacity="0.42"></circle>
    <circle r="6" cx="346" cy="336" fill="hsl(52, 75%, 70%)" opacity="0.88"></circle>
    <circle r="6.5" cx="467" cy="645" fill="hsl(67, 75%, 70%)" opacity="0.80"></circle>
    <circle r="11.5" cx="702" cy="250" fill="hsl(256, 75%, 70%)" opacity="0.20"></circle>
    <circle r="4.5" cx="475" cy="779" fill="hsl(67, 75%, 70%)" opacity="0.99"></circle>
    <circle r="9" cx="227" cy="656" fill="hsl(168, 75%, 70%)" opacity="0.41"></circle>
    <circle r="5.5" cx="487" cy="615" fill="hsl(83, 75%, 70%)" opacity="0.31"></circle>
    <circle r="4" cx="792" cy="70" fill="hsl(155, 75%, 70%)" opacity="0.88"></circle>
    <circle r="8.5" cx="716" cy="678" fill="hsl(242, 75%, 70%)" opacity="0.39"></circle>
    <circle r="5.5" cx="421" cy="368" fill="hsl(30, 75%, 70%)" opacity="0.64"></circle>
    <circle r="12.5" cx="47" cy="517" fill="hsl(223, 75%, 70%)" opacity="0.42"></circle>
    <circle r="12" cx="269" cy="140" fill="hsl(139, 75%, 70%)" opacity="0.89"></circle>
    <circle r="4" cx="391" cy="698" fill="hsl(29, 75%, 70%)" opacity="0.77"></circle>
    <circle r="11.5" cx="326" cy="19" fill="hsl(243, 75%, 70%)" opacity="0.91"></circle>
    <circle r="10" cx="219" cy="486" fill="hsl(181, 75%, 70%)" opacity="0.90"></circle>
    <circle r="3.5" cx="412" cy="681" fill="hsl(29, 75%, 70%)" opacity="0.92"></circle>
    <circle r="5" cx="443" cy="488" fill="hsl(43, 75%, 70%)" opacity="0.72"></circle>
    <circle r="3.5" cx="465" cy="262" fill="hsl(67, 75%, 70%)" opacity="0.76"></circle>
    <circle r="9.5" cx="758" cy="529" fill="hsl(193, 75%, 70%)" opacity="0.91"></circle>
    <circle r="11" cx="628" cy="692" fill="hsl(291, 75%, 70%)" opacity="0.37"></circle>
    <circle r="7" cx="322" cy="140" fill="hsl(98, 75%, 70%)" opacity="0.84"></circle>
    <circle r="9.5" cx="84" cy="318" fill="hsl(230, 75%, 70%)" opacity="0.95"></circle>
    <circle r="12" cx="92" cy="539" fill="hsl(232, 75%, 70%)" opacity="0.63"></circle>
    <circle r="8.5" cx="327" cy="218" fill="hsl(62, 75%, 70%)" opacity="0.81"></circle>
    <circle r="6.5" cx="238" cy="701" fill="hsl(154, 75%, 70%)" opacity="0.75"></circle>
    <circle r="5" cx="515" cy="334" fill="hsl(144, 75%, 70%)" opacity="0.63"></circle>
    <circle r="11" cx="654" cy="106" fill="hsl(254, 75%, 70%)" opacity="0.85"></circle>
    <circle r="5.5" cx="373" cy="263" fill="hsl(37, 75%, 70%)" opacity="0.63"></circle>
    <circle r="8.5" cx="265" cy="314" fill="hsl(126, 75%, 70%)" opacity="0.82"></circle>
    <circle r="8.5" cx="780" cy="172" fill="hsl(158, 75%, 70%)" opacity="0.71"></circle>
    <circle r="7.5" cx="319" cy="434" fill="hsl(73, 75%, 70%)" opacity="0.11"></circle>
    <circle r="12" cx="213" cy="326" fill="hsl(181, 75%, 70%)" opacity="0.57"></circle>
    <circle r="9" cx="261" cy="478" fill="hsl(140, 75%, 70%)" opacity="0.22"></circle>
    <circle r="10.5" cx="649" cy="352" fill="hsl(292, 75%, 70%)" opacity="0.83"></circle>
    <circle r="12" cx="46" cy="339" fill="hsl(223, 75%, 70%)" opacity="0.28"></circle>
    <circle r="9.5" cx="143" cy="343" fill="hsl(229, 75%, 70%)" opacity="0.35"></circle>
    <circle r="5" cx="493" cy="291" fill="hsl(102, 75%, 70%)" opacity="0.73"></circle>
    <circle r="7" cx="494" cy="229" fill="hsl(102, 75%, 70%)" opacity="0.30"></circle>
    <circle r="11.5" cx="67" cy="622" fill="hsl(228, 75%, 70%)" opacity="0.33"></circle>
    <circle r="3" cx="481" cy="273" fill="hsl(83, 75%, 70%)" opacity="0.46"></circle>
    <circle r="9.5" cx="732" cy="233" fill="hsl(226, 75%, 70%)" opacity="0.36"></circle>
    <circle r="8" cx="553" cy="688" fill="hsl(211, 75%, 70%)" opacity="0.24"></circle>
    <circle r="11.5" cx="543" cy="131" fill="hsl(197, 75%, 70%)" opacity="0.85"></circle>
    <circle r="9.5" cx="444" cy="92" fill="hsl(133, 75%, 70%)" opacity="0.90"></circle>
    <circle r="6.5" cx="475" cy="153" fill="hsl(94, 75%, 70%)" opacity="0.94"></circle>
    <circle r="11" cx="102" cy="210" fill="hsl(233, 75%, 70%)" opacity="0.21"></circle>
    <circle r="13.5" cx="128" cy="766" fill="hsl(232, 75%, 70%)" opacity="0.46"></circle>
    <circle r="11.5" cx="43" cy="395" fill="hsl(223, 75%, 70%)" opacity="0.59"></circle>
    <circle r="6.5" cx="315" cy="483" fill="hsl(73, 75%, 70%)" opacity="0.27"></circle>
    <circle r="3.5" cx="792" cy="658" fill="hsl(141, 75%, 70%)" opacity="0.50"></circle>
    <circle r="9.5" cx="510" cy="161" fill="hsl(141, 75%, 70%)" opacity="0.79"></circle>
    <circle r="8" cx="494" cy="115" fill="hsl(142, 75%, 70%)" opacity="0.55"></circle>
    <circle r="9" cx="565" cy="85" fill="hsl(192, 75%, 70%)" opacity="0.32"></circle>
    <circle r="9.5" cx="524" cy="577" fill="hsl(144, 75%, 70%)" opacity="0.59"></circle>
    <circle r="11.5" cx="691" cy="571" fill="hsl(268, 75%, 70%)" opacity="0.71"></circle>
    <circle r="4.5" cx="368" cy="191" fill="hsl(37, 75%, 70%)" opacity="0.99"></circle>
    <circle r="14" cx="118" cy="400" fill="hsl(233, 75%, 70%)" opacity="0.26"></circle>
    <circle r="9.5" cx="559" cy="486" fill="hsl(211, 75%, 70%)" opacity="0.92"></circle>
    <circle r="12.5" cx="681" cy="283" fill="hsl(278, 75%, 70%)" opacity="0.75"></circle>
    <circle r="5" cx="349" cy="478" fill="hsl(52, 75%, 70%)" opacity="0.97"></circle>
    <circle r="11.5" cx="736" cy="450" fill="hsl(226, 75%, 70%)" opacity="0.19"></circle>
    <circle r="14.5" cx="675" cy="414" fill="hsl(278, 75%, 70%)" opacity="0.58"></circle>
    <circle r="12" cx="648" cy="642" fill="hsl(292, 75%, 70%)" opacity="0.72"></circle>
    <circle r="9" cx="528" cy="655" fill="hsl(167, 75%, 70%)" opacity="0.19"></circle>
    <circle r="11" cx="586" cy="339" fill="hsl(249, 75%, 70%)" opacity="0.62"></circle>
    <circle r="9" cx="94" cy="782" fill="hsl(232, 75%, 70%)" opacity="0.58"></circle>
    <circle r="7.5" cx="773" cy="41" fill="hsl(172, 75%, 70%)" opacity="0.37"></circle>
    <circle r="11.5" cx="183" cy="432" fill="hsl(212, 75%, 70%)" opacity="0.36"></circle>
    <circle r="8.5" cx="259" cy="539" fill="hsl(140, 75%, 70%)" opacity="0.85"></circle>
    <circle r="11.5" cx="301" cy="96" fill="hsl(162, 75%, 70%)" opacity="0.83"></circle>
    <circle r="13.5" cx="134" cy="678" fill="hsl(232, 75%, 70%)" opacity="0.94"></circle>
    <circle r="6" cx="436" cy="302" fill="hsl(35, 75%, 70%)" opacity="0.93"></circle>
    <circle r="9.5" cx="23" cy="106" fill="hsl(194, 75%, 70%)" opacity="0.35"></circle>
    <circle r="11" cx="678" cy="217" fill="hsl(278, 75%, 70%)" opacity="0.90"></circle>
    <circle r="7" cx="179" cy="787" fill="hsl(212, 75%, 70%)" opacity="0.22"></circle>
    <circle r="13" cx="619" cy="367" fill="hsl(285, 75%, 70%)" opacity="0.48"></circle>
    <circle r="7.5" cx="256" cy="759" fill="hsl(140, 75%, 70%)" opacity="0.63"></circle>
    <circle r="6" cx="774" cy="649" fill="hsl(175, 75%, 70%)" opacity="0.35"></circle>
    <circle r="7.5" cx="163" cy="590" fill="hsl(220, 75%, 70%)" opacity="0.52"></circle>
    <circle r="8.5" cx="531" cy="81" fill="hsl(168, 75%, 70%)" opacity="0.54"></circle>
    <circle r="17" cx="144" cy="28" fill="hsl(296, 75%, 70%)" opacity="0.48"></circle>
    <circle r="9.5" cx="279" cy="208" fill="hsl(112, 75%, 70%)" opacity="0.82"></circle>
    <circle r="7" cx="355" cy="683" fill="hsl(44, 75%, 70%)" opacity="0.48"></circle>
    <circle r="11.5" cx="634" cy="176" fill="hsl(289, 75%, 70%)" opacity="0.63"></circle>
    <circle r="5" cx="317" cy="399" fill="hsl(73, 75%, 70%)" opacity="0.40"></circle>
    <circle r="14" cx="56" cy="438" fill="hsl(226, 75%, 70%)" opacity="0.84"></circle>
    <circle r="15" cx="588" cy="454" fill="hsl(264, 75%, 70%)" opacity="0.34"></circle>
    <circle r="14" cx="87" cy="23" fill="hsl(271, 75%, 70%)" opacity="0.15"></circle>
    <circle r="12" cx="631" cy="564" fill="hsl(291, 75%, 70%)" opacity="0.12"></circle>
    <circle r="12.5" cx="118" cy="115" fill="hsl(258, 75%, 70%)" opacity="0.97"></circle>
    <circle r="11.5" cx="280" cy="51" fill="hsl(222, 75%, 70%)" opacity="0.98"></circle>
    <circle r="16" cx="176" cy="70" fill="hsl(270, 75%, 70%)" opacity="0.44"></circle>
    <circle r="3.5" cx="438" cy="425" fill="hsl(43, 75%, 70%)" opacity="0.89"></circle>
    <circle r="7.5" cx="29" cy="74" fill="hsl(211, 75%, 70%)" opacity="0.81"></circle>
    <circle r="11.5" cx="691" cy="24" fill="hsl(184, 75%, 70%)" opacity="0.11"></circle>
    <circle r="15" cx="595" cy="275" fill="hsl(264, 75%, 70%)" opacity="0.38"></circle>
    <circle r="13" cx="71" cy="114" fill="hsl(237, 75%, 70%)" opacity="0.54"></circle>
    <circle r="10.5" cx="175" cy="360" fill="hsl(212, 75%, 70%)" opacity="0.42"></circle>
    <circle r="10" cx="639" cy="71" fill="hsl(220, 75%, 70%)" opacity="0.10"></circle>
    <circle r="6.5" cx="517" cy="408" fill="hsl(144, 75%, 70%)" opacity="0.91"></circle>
    <circle r="9" cx="307" cy="682" fill="hsl(85, 75%, 70%)" opacity="0.84"></circle>
    <circle r="10" cx="598" cy="78" fill="hsl(209, 75%, 70%)" opacity="0.97"></circle>
    <circle r="13" cx="91" cy="67" fill="hsl(271, 75%, 70%)" opacity="0.93"></circle>
    <circle r="9.5" cx="14" cy="553" fill="hsl(217, 75%, 70%)" opacity="0.49"></circle>
    <circle r="8.5" cx="638" cy="18" fill="hsl(168, 75%, 70%)" opacity="0.99"></circle>
    <circle r="5.5" cx="456" cy="406" fill="hsl(53, 75%, 70%)" opacity="0.78"></circle>
    <circle r="7" cx="200" cy="272" fill="hsl(193, 75%, 70%)" opacity="0.93"></circle>
    <circle r="6.5" cx="747" cy="675" fill="hsl(210, 75%, 70%)" opacity="0.20"></circle>
    <circle r="3.5" cx="470" cy="756" fill="hsl(67, 75%, 70%)" opacity="0.41"></circle>
    <circle r="5" cx="306" cy="324" fill="hsl(85, 75%, 70%)" opacity="0.30"></circle>
    <circle r="16.5" cx="636" cy="439" fill="hsl(291, 75%, 70%)" opacity="0.32"></circle>
    <circle r="8" cx="554" cy="327" fill="hsl(211, 75%, 70%)" opacity="0.52"></circle>
    <circle r="12.5" cx="132" cy="445" fill="hsl(232, 75%, 70%)" opacity="0.28"></circle>
    <circle r="6.5" cx="510" cy="695" fill="hsl(123, 75%, 70%)" opacity="0.90"></circle>
    <circle r="5.5" cx="361" cy="430" fill="hsl(44, 75%, 70%)" opacity="0.44"></circle>
    <circle r="11" cx="329" cy="60" fill="hsl(201, 75%, 70%)" opacity="0.18"></circle>
    <circle r="9" cx="555" cy="620" fill="hsl(211, 75%, 70%)" opacity="0.29"></circle>
    <circle r="12" cx="648" cy="600" fill="hsl(292, 75%, 70%)" opacity="0.90"></circle>
    <circle r="6.5" cx="490" cy="354" fill="hsl(102, 75%, 70%)" opacity="0.84"></circle>
    <circle r="11" cx="191" cy="194" fill="hsl(203, 75%, 70%)" opacity="0.34"></circle>
    <circle r="16" cx="587" cy="578" fill="hsl(249, 75%, 70%)" opacity="0.75"></circle>
    <circle r="16" cx="708" cy="774" fill="hsl(256, 75%, 70%)" opacity="0.70"></circle>
    <circle r="12" cx="581" cy="206" fill="hsl(249, 75%, 70%)" opacity="0.53"></circle>
    <circle r="5.5" cx="418" cy="724" fill="hsl(30, 75%, 70%)" opacity="0.18"></circle>
    <circle r="10" cx="615" cy="637" fill="hsl(285, 75%, 70%)" opacity="0.44"></circle>
    <circle r="7.5" cx="747" cy="645" fill="hsl(210, 75%, 70%)" opacity="0.60"></circle>
    <circle r="6.5" cx="382" cy="577" fill="hsl(32, 75%, 70%)" opacity="0.86"></circle>
    <circle r="11" cx="592" cy="689" fill="hsl(264, 75%, 70%)" opacity="0.32"></circle>
    <circle r="4.5" cx="420" cy="653" fill="hsl(30, 75%, 70%)" opacity="0.82"></circle>
    <circle r="13.5" cx="122" cy="300" fill="hsl(233, 75%, 70%)" opacity="0.28"></circle>
    <circle r="8.5" cx="321" cy="633" fill="hsl(73, 75%, 70%)" opacity="0.28"></circle>
    <circle r="11" cx="529" cy="211" fill="hsl(167, 75%, 70%)" opacity="0.28"></circle>
    <circle r="11" cx="777" cy="269" fill="hsl(157, 75%, 70%)" opacity="0.55"></circle>
    <circle r="8.5" cx="351" cy="111" fill="hsl(126, 75%, 70%)" opacity="0.98"></circle>
    <circle r="11.5" cx="175" cy="649" fill="hsl(220, 75%, 70%)" opacity="0.91"></circle>
    <circle r="10" cx="182" cy="498" fill="hsl(212, 75%, 70%)" opacity="0.51"></circle>
    <circle r="10" cx="764" cy="735" fill="hsl(175, 75%, 70%)" opacity="0.25"></circle>
    <circle r="14" cx="558" cy="532" fill="hsl(211, 75%, 70%)" opacity="0.72"></circle>
    <circle r="6.5" cx="229" cy="785" fill="hsl(168, 75%, 70%)" opacity="0.11"></circle>
    <circle r="9" cx="529" cy="450" fill="hsl(167, 75%, 70%)" opacity="0.92"></circle>
    <circle r="17" cx="614" cy="516" fill="hsl(285, 75%, 70%)" opacity="0.34"></circle>
    <circle r="14.5" cx="547" cy="772" fill="hsl(189, 75%, 70%)" opacity="0.39"></circle>
    <circle r="9.5" cx="19" cy="698" fill="hsl(217, 75%, 70%)" opacity="0.18"></circle>
    <circle r="9.5" cx="366" cy="21" fill="hsl(228, 75%, 70%)" opacity="0.52"></circle>
    <circle r="7.5" cx="12" cy="198" fill="hsl(214, 75%, 70%)" opacity="0.28"></circle>
    <circle r="12" cx="24" cy="638" fill="hsl(217, 75%, 70%)" opacity="0.62"></circle>
    <circle r="5" cx="352" cy="784" fill="hsl(44, 75%, 70%)" opacity="0.46"></circle>
    <circle r="11.5" cx="154" cy="197" fill="hsl(225, 75%, 70%)" opacity="0.99"></circle>
    <circle r="6.5" cx="447" cy="605" fill="hsl(43, 75%, 70%)" opacity="0.28"></circle>
    <circle r="14" cx="695" cy="476" fill="hsl(268, 75%, 70%)" opacity="0.95"></circle>
    <circle r="8" cx="290" cy="730" fill="hsl(98, 75%, 70%)" opacity="0.91"></circle>
    <circle r="8.5" cx="118" cy="566" fill="hsl(233, 75%, 70%)" opacity="0.17"></circle>
    <circle r="7" cx="492" cy="55" fill="hsl(149, 75%, 70%)" opacity="0.88"></circle>
    <circle r="6" cx="37" cy="244" fill="hsl(220, 75%, 70%)" opacity="0.45"></circle>
    <circle r="9" cx="402" cy="26" fill="hsl(197, 75%, 70%)" opacity="0.73"></circle>
    <circle r="10" cx="177" cy="755" fill="hsl(212, 75%, 70%)" opacity="0.52"></circle>
    <circle r="5" cx="475" cy="580" fill="hsl(83, 75%, 70%)" opacity="0.48"></circle>
    <circle r="7" cx="345" cy="532" fill="hsl(52, 75%, 70%)" opacity="0.21"></circle>
    <circle r="12" cx="153" cy="720" fill="hsl(225, 75%, 70%)" opacity="0.89"></circle>
    <circle r="8" cx="206" cy="246" fill="hsl(193, 75%, 70%)" opacity="0.26"></circle>
    <circle r="12" cx="676" cy="746" fill="hsl(278, 75%, 70%)" opacity="0.53"></circle>
    <circle r="10" cx="778" cy="130" fill="hsl(161, 75%, 70%)" opacity="0.44"></circle>
    <circle r="4.5" cx="430" cy="515" fill="hsl(35, 75%, 70%)" opacity="0.94"></circle>
    <circle r="11" cx="13" cy="363" fill="hsl(217, 75%, 70%)" opacity="0.53"></circle>
    <circle r="8.5" cx="585" cy="633" fill="hsl(249, 75%, 70%)" opacity="0.60"></circle>
    <circle r="13" cx="728" cy="291" fill="hsl(226, 75%, 70%)" opacity="0.26"></circle>
    <circle r="9.5" cx="663" cy="554" fill="hsl(286, 75%, 70%)" opacity="0.54"></circle>
    <circle r="11" cx="730" cy="576" fill="hsl(226, 75%, 70%)" opacity="0.14"></circle>
    <circle r="4" cx="451" cy="231" fill="hsl(53, 75%, 70%)" opacity="0.38"></circle>
    <circle r="13.5" cx="97" cy="168" fill="hsl(234, 75%, 70%)" opacity="0.96"></circle>
    <circle r="12" cx="625" cy="782" fill="hsl(285, 75%, 70%)" opacity="0.70"></circle>
    <circle r="11" cx="651" cy="719" fill="hsl(291, 75%, 70%)" opacity="0.62"></circle>
    <circle r="7.5" cx="294" cy="780" fill="hsl(98, 75%, 70%)" opacity="0.36"></circle>
    <circle r="6" cx="491" cy="395" fill="hsl(102, 75%, 70%)" opacity="0.77"></circle>
    <circle r="11.5" cx="690" cy="323" fill="hsl(268, 75%, 70%)" opacity="0.37"></circle>
    <circle r="10" cx="679" cy="363" fill="hsl(278, 75%, 70%)" opacity="0.22"></circle>
    <circle r="3.5" cx="314" cy="347" fill="hsl(73, 75%, 70%)" opacity="0.19"></circle>
    <circle r="9.5" cx="15" cy="765" fill="hsl(217, 75%, 70%)" opacity="0.30"></circle>
    <circle r="6" cx="406" cy="174" fill="hsl(47, 75%, 70%)" opacity="0.46"></circle>
    <circle r="14" cx="576" cy="391" fill="hsl(249, 75%, 70%)" opacity="0.22"></circle>
    <circle r="4.5" cx="440" cy="205" fill="hsl(43, 75%, 70%)" opacity="0.78"></circle>
    <circle r="7.5" cx="688" cy="155" fill="hsl(262, 75%, 70%)" opacity="0.37"></circle>
    <circle r="8" cx="293" cy="517" fill="hsl(98, 75%, 70%)" opacity="0.71"></circle>
    <circle r="8.5" cx="248" cy="102" fill="hsl(193, 75%, 70%)" opacity="0.65"></circle>
    <circle r="7" cx="495" cy="665" fill="hsl(102, 75%, 70%)" opacity="0.22"></circle>
    <circle r="13" cx="646" cy="248" fill="hsl(292, 75%, 70%)" opacity="0.17"></circle>
    <circle r="5" cx="521" cy="293" fill="hsl(144, 75%, 70%)" opacity="0.13"></circle>
    <circle r="18.5" cx="167" cy="127" fill="hsl(238, 75%, 70%)" opacity="0.68"></circle>
    <circle r="9.5" cx="213" cy="620" fill="hsl(181, 75%, 70%)" opacity="0.13"></circle>
    <circle r="12.5" cx="51" cy="778" fill="hsl(226, 75%, 70%)" opacity="0.87"></circle>
    <circle r="6.5" cx="363" cy="620" fill="hsl(37, 75%, 70%)" opacity="0.92"></circle>
    <circle r="7.5" cx="266" cy="439" fill="hsl(126, 75%, 70%)" opacity="0.83"></circle>
    <circle r="7.5" cx="499" cy="732" fill="hsl(102, 75%, 70%)" opacity="0.94"></circle>
    <circle r="9" cx="781" cy="471" fill="hsl(157, 75%, 70%)" opacity="0.81"></circle>
    <circle r="9.5" cx="512" cy="23" fill="hsl(134, 75%, 70%)" opacity="0.78"></circle>
    <circle r="13" cx="690" cy="617" fill="hsl(268, 75%, 70%)" opacity="1.00"></circle>
    <circle r="9.5" cx="58" cy="299" fill="hsl(226, 75%, 70%)" opacity="0.94"></circle>
    <circle r="8" cx="781" cy="570" fill="hsl(157, 75%, 70%)" opacity="0.78"></circle>
    <circle r="4" cx="417" cy="439" fill="hsl(30, 75%, 70%)" opacity="0.64"></circle>
    <circle r="8" cx="433" cy="141" fill="hsl(79, 75%, 70%)" opacity="0.59"></circle>
    <circle r="4" cx="452" cy="718" fill="hsl(53, 75%, 70%)" opacity="0.19"></circle>
    <circle r="8.5" cx="755" cy="357" fill="hsl(193, 75%, 70%)" opacity="0.26"></circle>
    <circle r="10" cx="745" cy="152" fill="hsl(208, 75%, 70%)" opacity="0.18"></circle>
    <circle r="7.5" cx="14" cy="251" fill="hsl(217, 75%, 70%)" opacity="0.69"></circle>
    <circle r="4" cx="442" cy="265" fill="hsl(43, 75%, 70%)" opacity="0.45"></circle>
    <circle r="6.5" cx="473" cy="546" fill="hsl(67, 75%, 70%)" opacity="0.41"></circle>
    <circle r="15" cx="600" cy="743" fill="hsl(264, 75%, 70%)" opacity="0.18"></circle>
    <circle r="10" cx="720" cy="53" fill="hsl(205, 75%, 70%)" opacity="0.50"></circle>
    <circle r="11" cx="769" cy="778" fill="hsl(175, 75%, 70%)" opacity="0.34"></circle>
    <circle r="9.5" cx="225" cy="83" fill="hsl(236, 75%, 70%)" opacity="0.91"></circle>
    <circle r="13.5" cx="445" cy="34" fill="hsl(172, 75%, 70%)" opacity="0.98"></circle>
    <circle r="6.5" cx="371" cy="153" fill="hsl(63, 75%, 70%)" opacity="0.52"></circle>
    <circle r="9" cx="558" cy="283" fill="hsl(211, 75%, 70%)" opacity="0.16"></circle>
    <circle r="8.5" cx="549" cy="416" fill="hsl(189, 75%, 70%)" opacity="0.16"></circle>
    <circle r="6" cx="300" cy="373" fill="hsl(85, 75%, 70%)" opacity="0.13"></circle>
    <circle r="13" cx="621" cy="216" fill="hsl(285, 75%, 70%)" opacity="0.70"></circle>
    <circle r="12" cx="637" cy="289" fill="hsl(291, 75%, 70%)" opacity="0.19"></circle>
    <circle r="7.5" cx="70" cy="270" fill="hsl(228, 75%, 70%)" opacity="0.33"></circle>
    <circle r="10.5" cx="568" cy="25" fill="hsl(131, 75%, 70%)" opacity="0.46"></circle>
    <circle r="11" cx="708" cy="386" fill="hsl(256, 75%, 70%)" opacity="0.78"></circle>
    <circle r="11.5" cx="46" cy="196" fill="hsl(223, 75%, 70%)" opacity="0.97"></circle>
    <circle r="5.5" cx="392" cy="396" fill="hsl(29, 75%, 70%)" opacity="1.00"></circle>
    <circle r="7" cx="426" cy="556" fill="hsl(35, 75%, 70%)" opacity="0.29"></circle>
    <circle r="7.5" cx="210" cy="690" fill="hsl(193, 75%, 70%)" opacity="0.37"></circle>
    <circle r="12" cx="206" cy="393" fill="hsl(193, 75%, 70%)" opacity="0.98"></circle>
    <circle r="14.5" cx="109" cy="635" fill="hsl(233, 75%, 70%)" opacity="0.20"></circle>
    <circle r="11.5" cx="736" cy="494" fill="hsl(226, 75%, 70%)" opacity="0.85"></circle>
    <circle r="9.5" cx="714" cy="646" fill="hsl(242, 75%, 70%)" opacity="0.21"></circle>
    <circle r="7" cx="785" cy="371" fill="hsl(157, 75%, 70%)" opacity="0.48"></circle>
    <circle r="5.5" cx="456" cy="334" fill="hsl(53, 75%, 70%)" opacity="0.82"></circle>
    <circle r="11" cx="266" cy="627" fill="hsl(126, 75%, 70%)" opacity="0.27"></circle>
    <circle r="10.5" cx="678" cy="183" fill="hsl(277, 75%, 70%)" opacity="0.51"></circle>
    <circle r="7" cx="758" cy="14" fill="hsl(171, 75%, 70%)" opacity="0.56"></circle>
    <circle r="8.5" cx="535" cy="255" fill="hsl(167, 75%, 70%)" opacity="0.49"></circle>
    <circle r="5" cx="789" cy="524" fill="hsl(141, 75%, 70%)" opacity="0.16"></circle>
    <circle r="4.5" cx="473" cy="489" fill="hsl(67, 75%, 70%)" opacity="0.71"></circle>
    <circle r="10" cx="679" cy="693" fill="hsl(278, 75%, 70%)" opacity="0.23"></circle>
    <circle r="9" cx="257" cy="356" fill="hsl(140, 75%, 70%)" opacity="0.52"></circle>
    <circle r="11.5" cx="638" cy="140" fill="hsl(278, 75%, 70%)" opacity="0.22"></circle>
    <circle r="10.5" cx="722" cy="345" fill="hsl(242, 75%, 70%)" opacity="0.70"></circle>
    <circle r="5.5" cx="407" cy="620" fill="hsl(29, 75%, 70%)" opacity="0.17"></circle>
    <circle r="10.5" cx="88" cy="365" fill="hsl(232, 75%, 70%)" opacity="0.18"></circle>
    <circle r="10.5" cx="95" cy="253" fill="hsl(232, 75%, 70%)" opacity="0.84"></circle>
    <circle r="8.5" cx="611" cy="43" fill="hsl(175, 75%, 70%)" opacity="0.33"></circle>
    <circle r="5.5" cx="392" cy="321" fill="hsl(29, 75%, 70%)" opacity="0.63"></circle>
    <circle r="9.5" cx="208" cy="726" fill="hsl(193, 75%, 70%)" opacity="0.96"></circle>
    <circle r="10.5" cx="678" cy="661" fill="hsl(278, 75%, 70%)" opacity="0.45"></circle>
    <circle r="11" cx="173" cy="297" fill="hsl(220, 75%, 70%)" opacity="0.77"></circle>
    <circle r="6" cx="482" cy="83" fill="hsl(147, 75%, 70%)" opacity="0.22"></circle>
    <circle r="10" cx="268" cy="16" fill="hsl(265, 75%, 70%)" opacity="0.20"></circle>
    <circle r="6.5" cx="433" cy="770" fill="hsl(35, 75%, 70%)" opacity="0.22"></circle>
    <circle r="10.5" cx="248" cy="580" fill="hsl(154, 75%, 70%)" opacity="0.96"></circle>
    <circle r="5" cx="463" cy="185" fill="hsl(75, 75%, 70%)" opacity="0.98"></circle>
    <circle r="8.5" cx="263" cy="677" fill="hsl(126, 75%, 70%)" opacity="0.17"></circle>
    <circle r="5.5" cx="323" cy="174" fill="hsl(80, 75%, 70%)" opacity="0.13"></circle>
    <circle r="6.5" cx="758" cy="699" fill="hsl(193, 75%, 70%)" opacity="0.98"></circle>
    <circle r="3.5" cx="374" cy="489" fill="hsl(37, 75%, 70%)" opacity="0.96"></circle>
    <circle r="13" cx="710" cy="534" fill="hsl(256, 75%, 70%)" opacity="0.24"></circle>
    <circle r="13.5" cx="597" cy="130" fill="hsl(250, 75%, 70%)" opacity="0.92"></circle>
    <circle r="6.5" cx="523" cy="491" fill="hsl(144, 75%, 70%)" opacity="0.85"></circle>
    <circle r="11.5" cx="716" cy="714" fill="hsl(242, 75%, 70%)" opacity="0.24"></circle>
    <circle r="9" cx="506" cy="527" fill="hsl(123, 75%, 70%)" opacity="0.44"></circle>
    <circle r="12.5" cx="224" cy="162" fill="hsl(185, 75%, 70%)" opacity="0.76"></circle>
    <circle r="11" cx="278" cy="268" fill="hsl(112, 75%, 70%)" opacity="0.54"></circle>
    <circle r="8" cx="29" cy="46" fill="hsl(214, 75%, 70%)" opacity="0.99"></circle>
    <circle r="16.5" cx="89" cy="715" fill="hsl(232, 75%, 70%)" opacity="0.11"></circle>
    <circle r="12" cx="739" cy="406" fill="hsl(210, 75%, 70%)" opacity="0.63"></circle>
    <circle r="8" cx="761" cy="596" fill="hsl(193, 75%, 70%)" opacity="0.59"></circle>
    <circle r="10.5" cx="770" cy="319" fill="hsl(175, 75%, 70%)" opacity="0.61"></circle>
    <circle r="11" cx="683" cy="78" fill="hsl(233, 75%, 70%)" opacity="0.83"></circle>
    <circle r="12" cx="718" cy="186" fill="hsl(241, 75%, 70%)" opacity="0.54"></circle>
    <circle r="6" cx="255" cy="724" fill="hsl(140, 75%, 70%)" opacity="0.48"></circle>
    <circle r="5.5" cx="227" cy="757" fill="hsl(168, 75%, 70%)" opacity="0.85"></circle>
    <circle r="11.5" cx="147" cy="531" fill="hsl(229, 75%, 70%)" opacity="0.52"></circle>
    <circle r="5" cx="355" cy="392" fill="hsl(44, 75%, 70%)" opacity="0.78"></circle>
    <circle r="8.5" cx="30" cy="15" fill="hsl(215, 75%, 70%)" opacity="0.14"></circle>
    <circle r="6" cx="385" cy="533" fill="hsl(32, 75%, 70%)" opacity="0.51"></circle>
    <circle r="11" cx="738" cy="89" fill="hsl(200, 75%, 70%)" opacity="0.60"></circle>
    <circle r="5.5" cx="461" cy="451" fill="hsl(53, 75%, 70%)" opacity="0.17"></circle>
    <circle r="16.5" cx="213" cy="27" fill="hsl(276, 75%, 70%)" opacity="0.80"></circle>
    <circle r="5" cx="414" cy="256" fill="hsl(30, 75%, 70%)" opacity="0.99"></circle>
    <circle r="9.5" cx="650" cy="318" fill="hsl(291, 75%, 70%)" opacity="0.67"></circle>
    <circle r="9.5" cx="47" cy="719" fill="hsl(223, 75%, 70%)" opacity="0.50"></circle>
    <circle r="6.5" cx="786" cy="214" fill="hsl(157, 75%, 70%)" opacity="0.67"></circle>
    <circle r="2.5" cx="409" cy="495" fill="hsl(29, 75%, 70%)" opacity="0.11"></circle>
    <circle r="9.5" cx="736" cy="616" fill="hsl(226, 75%, 70%)" opacity="0.68"></circle>
    <circle r="6.5" cx="374" cy="734" fill="hsl(37, 75%, 70%)" opacity="0.25"></circle>
    <circle r="11" cx="374" cy="70" fill="hsl(174, 75%, 70%)" opacity="0.66"></circle>
    <circle r="8" cx="186" cy="604" fill="hsl(212, 75%, 70%)" opacity="0.75"></circle>
    <circle r="10.5" cx="558" cy="170" fill="hsl(216, 75%, 70%)" opacity="1.00"></circle>
    <circle r="5.5" cx="385" cy="220" fill="hsl(32, 75%, 70%)" opacity="0.85"></circle>
    <circle r="10.5" cx="544" cy="723" fill="hsl(189, 75%, 70%)" opacity="0.34"></circle>
    <circle r="14.5" cx="198" cy="551" fill="hsl(203, 75%, 70%)" opacity="0.88"></circle>
    <circle r="9" cx="528" cy="366" fill="hsl(167, 75%, 70%)" opacity="0.14"></circle>
    <circle r="7.5" cx="566" cy="662" fill="hsl(231, 75%, 70%)" opacity="0.88"></circle>
    <circle r="5.5" cx="458" cy="373" fill="hsl(53, 75%, 70%)" opacity="0.63"></circle>
    <circle r="6.5" cx="786" cy="615" fill="hsl(157, 75%, 70%)" opacity="0.41"></circle>
    <circle r="11.5" cx="138" cy="486" fill="hsl(229, 75%, 70%)" opacity="0.39"></circle>
    <circle r="8" cx="757" cy="211" fill="hsl(193, 75%, 70%)" opacity="0.10"></circle>
    <circle r="12" cx="48" cy="573" fill="hsl(223, 75%, 70%)" opacity="0.13"></circle>
    <circle r="14.5" cx="659" cy="499" fill="hsl(291, 75%, 70%)" opacity="0.43"></circle>
    <circle r="7" cx="774" cy="89" fill="hsl(176, 75%, 70%)" opacity="0.23"></circle>
    <circle r="8" cx="109" cy="342" fill="hsl(233, 75%, 70%)" opacity="0.47"></circle>
</svg>