<svg xmlns="http://www.w3.org/2000/svg" version="1.1" xmlns:xlink="http://www.w3.org/1999/xlink"
    xmlns:svgjs="http://svgjs.dev/svgjs" viewBox="0 0 800 800">
    <defs>
        <linearGradient x1="50%" y1="0%" x2="50%" y2="100%" id="ssscribble-grad">
            <stop stop-color="hsl(206, 75%, 49%)" stop-opacity="1" offset="0%"></stop>
            <stop stop-color="hsl(331, 90%, 56%)" stop-opacity="1" offset="100%"></stop>
        </linearGradient>
    </defs>
    <g fill="none" stroke-width="1.5" stroke="url(#ssscribble-grad)" stroke-linecap="round">
        <path
            d="M821.06 456.27C722.96 489.13 713.58 530.42 789.68 578.3 907.51 625.16 994.11 676.19 1005.99 727.09 940.32 771.69 825.08 808.87 707.95 831.92 622.88 840.15 591.3 828.22 605.85 795.48 655.65 754.43 711.02 706.28 752.04 664.46 778.33 647.92 777.03 661.91 754.18 712.37 716.86 793.67 670.57 890.34 624.15 978.29 574.68 1033.96 531.81 1039.31 498.95 989.23 466.09 902.55 444.79 806.06 432.29 728.98 416.73 691.49 403.25 698.14 383.62 739.64 349.53 805.32 296.71 869.56 219.78 915.11 128.1 937.28 25.56 926.56 -67.3 888.14 -124.92 828.34 -132.31 756.18 -81.45 681.8 1.45 606.03 87.22 537.85 128.8 479.39 92.84 425.65 -12.46 380.11 -142.97 340.73 -231.74 303.28 -229.02 268.59 -130.93 235.73 0.59 202.87 87.86 173.39 86.72 148.87 2.25 126.27 -108.87 112.03 -184.87 108.83 -193.11 110.33 -125.88 124.4 -15.49 149.52 102.58 173.25 190.09 198.24 232.36 214.97 229.08 210.33 196.34 182.09 155.61 125.71 111.15 45.96 84.29 -47.75 78.1 -137.51 83.62 -203.1 105.05 -228.46 135.24 -203.67 169.47 -139.28 204.84 -49.46 237.7 37.22 270.56 87.31 299.35 88.64 327.1 45.66 358.88 -29.6 397.23 -107.57 448.66 -164.79 511.79 -191.17 592.77 -175.7 687.88 -124.95 779.25 -48.91 859.17 38.19 905.52 122.31 906.32 198.12 857.77 257.23 773.91 299.65 697.73 327.25 659.97 344.19 692.3 356.54 792.39 362.59 922.23 371.34 1019.38 386.45 1033.19 400.54 952.59 423.41 821.06 456.27Q821.06 456.27 821.06 456.27"
            opacity="0.28"></path>
        <path
            d="M787.06 536.07C693.32 566.58 674.4 601.6 732.38 639.18 837.92 675.16 932.5 710.46 973.37 740.98 947.52 765.01 863.14 778.53 753.78 777.49 648.49 766.4 576.07 740.06 544.38 701.43 551.9 664.15 583.48 629.28 621.14 608.18 662.64 613.64 689.22 647.42 697.84 710.29 697.15 793.65 681.73 883.43 657.17 959.36 629.16 1003.76 598.37 1003.38 567.86 955.23 537.35 875.4 508.55 785.15 479.02 708.48 446.03 662.87 405.94 654.66 353.75 679.44 292.26 731.23 215.43 790.33 126.89 841.46 42.2 880.01 -33.17 893.24 -80.69 881.41 -88.99 849.02 -52.75 799.39 20.76 740.79 98.35 674.97 155.36 610.09 158.85 550.56 95.61 491.85 -16.33 440.4 -133.65 396.55 -203.41 353.69 -190.67 316.94 -96.93 286.43 44.2 223.58 -149.5 220.42 -60.11 246.54 47.09 258.11 151.54 263.93 230.43 256.34 275.98 228.17 287.12 178.77 276.05 108.45 246.72 25.55 217.63 -60.9 198.15 -135.06 180.88 -182.21 178.29 -191.38 189.05 -157.56 202.32 -92.67 225.08 -8.61 255.59 71.22 286.11 119.38 322.92 125.96 367.2 93.34 413.98 29.2 472.09 -43.21 542.24 -104.21 614.59 -144.71 693.94 -151.14 770.3 -124.83 828.4 -71.96 861.06 -0.92 855.51 76.34 816.61 154.97 748.34 225.11 672.9 283.24 627.42 331.31 630.52 368.04 695.38 396.89 805.17 419.26 922.32 439.46 995.86 461.03 992.44 481 909.84 505.56 787.06 536.07Q787.06 536.07 787.06 536.07"
            opacity="0.76"></path>
        <path
            d="M753.06 568.86C664.16 597.03 637.32 624.64 677.89 650.24 767.82 674.32 862.45 693.54 923.61 705.1 933.96 711.88 887.19 707.85 802.29 691.83 699.87 671.61 606.8 642.5 539.08 609.33 501.15 584.39 492.33 568.3 502.05 569.36 527.72 594.61 553.58 643.53 571.56 713.41 588.73 794.57 593.16 875.09 585.22 938.59 575.46 972.47 555.96 967.18 527.8 921.23 499.63 848.19 464.13 764.59 420.76 689.76 375.59 638.38 319.92 617.48 253.93 626.1 187.14 661.78 114.9 710.39 45.81 759.56 -23.12 820.44 22.72 826.51 125.65 777.33 181.23 730.53 202.74 679.09 171.74 628.05 89.94 574.75 -20.71 525.73 -121.52 483.08 -172.96 440.42 -151.83 404.51 -62.93 376.34 91.48 322.83 -114.71 315.17 -84.96 321.09 -7.79 314.66 88.3 298.63 180.74 268.1 259.38 221.3 312.05 158.39 340.5 82.94 347.6 4.45 342.46 -69.42 334.76 -125.75 321.16 -155.02 314.72 -150.16 318.95 -109.66 323.16 -45.71 339.05 32.17 367.22 105.22 395.39 151.18 434.5 162.2 483.4 139.19 532.29 86.57 589.97 22.07 652.39 -38.44 708.9 -87.67 760.43 -111.33 796.74 -107.27 811.7 -79 799.46 -29.51 757.74 32.33 702.22 102.42 639.51 171.96 591.67 235.59 583.99 295.03 623.77 345.44 710.01 387.48 818.92 424.73 917.76 456.75 967.8 485.79 949.73 513.31 866.88 540.69 753.06 568.86Q753.06 568.86 753.06 568.86"
            opacity="0.20"></path>
        <path
            d="M719.06 543.33C635.47 569.15 602.38 590.1 626.79 605.54 699 619.98 786.74 627.2 858.59 626.13 897.33 622.85 887.97 610.74 837.3 590.87 757.25 572.02 666.95 550.38 583.71 531.1 514.02 523.48 466.89 527.8 440.24 549.14 431.58 589.9 433.55 648.36 438.18 719.89 448.51 795.18 453.24 864.72 448.93 915.83 445.01 940.08 430.59 930.71 404.77 887.23 378.95 820.91 342.96 744.3 298.18 672.64 253.8 617.83 202.1 586.8 147.03 580.8 97.65 599.72 53.16 634.3 22.03 675.32 8.88 720.54 18.94 757.43 54.79 781.32 104.19 795 163.88 793.08 217.04 778.09 240.83 753.75 227.03 721.34 169.37 685.14 78.59 645.1 -23.83 605.56 -106 569.31 -140.38 532.34 -112.52 500.25 -28.93 474.43 75.72 448.61 162.39 430.28 202.25 418.55 184.36 406.11 122.11 398.68 42.22 393.97 -33.84 385.43 -77.28 375.33 -78.86 359.88 -41.47 335.07 26.45 299.93 107.92 252.42 194.03 194.69 269.44 127.18 328.33 55.08 372.57 -12.82 401.03 -70.56 419.33 -108.4 428.9 -121.34 436.82 -105.01 448.09 -60.17 457.54 1.51 474.26 72.89 500.08 139.21 525.9 182.7 559.59 197.31 598.84 183.03 636.26 141.9 675.31 87.05 710.49 30.68 743.96 -39.57 708.28 -52.41 636.84 2.18 589.21 55.3 551.89 114.01 541.39 172.66 569.85 232.32 636.45 286.95 731.44 334.98 830.26 380.79 907.2 420.54 935.06 454.79 905.16 488.05 823.72 517.51 719.06 543.33Q719.06 543.33 719.06 543.33"
            opacity="0.88"></path>
        <path
            d="M685.02 468.3C607.22 491.77 569.6 508.18 579.59 517.63 633.24 526.77 708.62 528.57 781.81 523.44 838.47 518.5 860.24 508.02 845.45 494.29 799.34 484.95 731.32 477.5 655.28 476.24 577.18 486.87 509.1 509.59 455.17 546.68 413.14 597.27 384.38 659.38 364.52 727.7 352.01 794.21 341.62 851.76 329.18 890.91 318.44 906.57 302.14 893.98 278.67 853.24 255.2 793.57 225.66 724.2 192.14 656.88 160.31 600.91 128.01 562.56 99.83 544.3 79.02 547.32 69.13 566.27 74.98 594.91 92.73 632.24 127.11 667.96 174.45 697.07 239.82 728.94 250.52 727.47 155.25 701.13 64.86 677.62 -23.88 651.2 -86.58 624.37 -105.63 596.56 -72.77 570.28 5.02 546.81 100.36 523.34 183.62 503.78 231.42 487.33 232.43 469.89 192.2 453.61 127.7 436.44 53.33 415.44 -5.9 390.11 -37.11 358.16 -38.61 319.43 -8.34 272.02 44.3 216.24 112.98 156.36 185.71 92.81 253.66 31.04 317.75 -22.03 370.49 -62.02 412.23 -82.25 447.62 -81.2 475.86 -56.2 500.16 -9.29 522.4 48.95 544.55 113.57 568.02 173.24 591.49 213.98 615.18 231.33 637.2 224.73 657.17 194.63 671.64 150.44 676.92 101.14 675.87 50.01 661.79 8.96 633.87 -17.18 602.1 -29.83 563.07 -24.72 525.14 -4.58 503.26 27.43 500.8 68.58 526.73 114.1 582.38 164 662.66 213.13 754.24 258.75 835.95 304.56 889.55 345.46 897.61 380.58 858.89 415.4 780.4 444.82 685.06 468.29Q685.02 468.3 685.02 468.3"
            opacity="0.15"></path>
        <path
            d="M651.45 369.56C559.39 397.89 601.43 423.23 697.5 423.25 782.17 422.72 791.28 429.29 722.25 450.05 658.8 476.13 593.1 512.39 531.85 559.01 473.41 613.29 424.26 673.51 384.4 734.63 349.33 790.34 320.79 835.56 296.5 863.6 273.84 871.83 252.44 856.88 231.32 819.13 210.19 766.01 190.34 704.07 173.16 642.1 157.62 587.1 147.73 544.34 146.19 516.75 149.44 506.04 163.8 509.68 189.68 523.97 218.37 548.77 253.74 576.5 289.51 602.77 313.32 629.84 323.33 650.36 311.51 662.97 273.98 672.17 212.47 673.25 133.59 667.29 51.67 658.59 -19.61 644.84 -63.01 627.6 -68.64 609.5 -32.28 589.49 39.45 568.37 125.35 547.24 203.66 526 256.18 504.26 272.59 481.67 253.55 456.99 208.54 429.08 145.79 398.43 84.41 362.56 37.04 320.81 6.66 275.64 1.64 224.79 19.32 170.04 55.55 116.07 104.88 63.3 159.52 16.5 219.13 -19.78 275.45 -42.37 325.16 -47.15 373.29 -35.05 413.9 -4.32 447.19 42.52 479.4 96.32 506.01 153.99 527.13 207.11 555.57 254.49 575.99 227.56 563.37 170.73 550.27 125.1 528.74 83.82 501.7 51.53 470.11 21.3 477.11 39.4 544.52 78.39 613.89 112.24 694.21 148.75 772.45 185.03 832.95 223.07 864.01 258.6 855.75 289.97 811.38 321.59 737.35 348.44 651.45 369.56Q651.45 369.56 651.45 369.56"
            opacity="0.76"></path>
        <path
            d="M617.01 281.49C531.23 307.46 537.8 340.44 612.42 351.47 672.13 360.59 723.06 370.51 757.8 383.11 776.24 400.67 773.62 423.58 753.27 453.22 718.53 489.31 674 532.59 625.69 581.98 573.21 634.16 523.3 687.91 478.78 738.94 435.02 782.82 397.62 816.05 366.83 834.15 336.73 836.19 312.2 819.72 293.42 785.22 274.64 738.55 262.51 684.12 257.19 628.35 252.57 576.22 255.81 531.91 267.03 498.26 279.01 476.95 297.99 467.32 321.53 467.56 349.69 485.72 354.52 541.85 306.71 565.78 252.42 579.85 184.65 588.02 111.16 590.01 17.44 588.35 -10.86 558.12 73.01 531.97 149.34 513.19 221.64 491.26 276.24 466.31 304.64 440.88 304.74 411.57 280.74 378.26 236.32 343.72 184.31 304.64 134.86 261.62 90.28 218.2 61.09 172.35 49.05 126.41 51.19 84.25 68.48 46.37 96.29 16.46 132.68 -3.31 172.96 -10.52 212.84 -2.98 255.01 16.89 293.31 50.52 325.75 95.4 358.35 143.93 384.53 194.55 403.3 241.22 427.34 285.86 436.3 279.07 424.61 237.68 417.27 200.42 407.91 163.51 400.45 130.88 401.58 101.04 411.25 80.02 433.71 68.54 470.35 63.52 521.81 67.57 585.93 78.95 654.94 95.28 723.79 116.29 781.98 139.71 819.74 165.38 830.34 191.23 809.21 215.56 761.86 240.42 693.38 262.71 617.05 281.48Q617.01 281.49 617.01 281.49"
            opacity="0.68"></path>
        <path
            d="M583.05 234.26C484.95 267.12 471.19 295.7 530.81 325.07 631.42 361.9 707.34 411.99 730.86 480.65 710.55 561.67 653.18 654.36 588.52 738.39 515.65 793.31 457.64 801.3 424.78 751.21 391.92 664.52 387.32 566.84 403.24 487.85 410.95 440.98 417.03 426.92 394.27 433.48 327.68 459.06 216.91 480.97 92.22 487.82 8.51 494.88 8.95 482.74 107.05 449.87 238.58 417.01 328.15 366.54 339 302.53 276.52 238.74 192.16 165.54 131.86 96.9 98.48 47.27 109.88 26.47 146.16 49.25 196.24 104.16 244.79 188.52 277.65 275.21 310.51 325.3 324.57 330.63 331.44 299.79 352.11 239.85 391.99 182.02 468.45 144.07 571.81 118.48 691.02 119.67 777.59 139.79 790.83 167.37 714.58 201.4 583.05 234.26Q583.05 234.26 583.05 234.26"
            opacity="0.32"></path>
        <path
            d="M549.02 244.28C460.14 272.44 430.16 306.62 458.4 348.03 531.21 393.73 605.78 452.69 654.14 523.44 680.6 596.34 672.61 671.1 644.91 731.45 606.78 765.89 568.16 763.19 540 717.24 511.83 644.2 496.78 559.66 486.1 484.51 464.98 428.04 429.02 394.52 365.64 379.52 280.36 381.65 175.91 387.46 82.46 387.03 33.58 389.63 52.14 378.7 141.02 350.54 254.85 322.37 344.83 279.63 380.92 228.22 358.91 179.83 303.84 130.07 248.07 91.03 193.83 69.1 168.11 72.74 169.08 108.57 179.61 163.06 203.21 236.18 231.38 309.22 259.54 355.18 289.6 369.31 327.89 355.52 375.72 315.82 445.39 270.93 536.55 234.94 671.71 193.6 702.15 206.36 549.06 244.27Q549.02 244.28 549.02 244.28"
            opacity="0.48"></path>
        <path
            d="M515.02 308.06C437.22 331.53 397.49 366.03 399.34 409.67 439.11 454.6 493.18 509.63 540.69 569.88 585.36 626.53 607.78 679.31 609.3 716.82 604.53 734.15 587.83 723.98 564.36 683.24 540.89 623.57 512.87 553.46 476.96 486.71 434.76 428.77 375.71 384.61 300.28 354.44 222 336.28 143.04 324.66 86.06 313.47 67 305.76 97.22 291.77 175.02 268.3 270.36 244.83 354.39 214.1 405.39 181.13 417.32 151.64 398.47 126.63 366.82 114.03 323.06 113.43 290.27 132.69 276.25 173.42 264.76 222.96 271.11 283.55 294.58 343.22 318.05 383.97 356.41 403.66 408.57 403.54 463.27 383.24 532.69 355.35 607.21 329.47 691.51 290.78 647.64 279.47 515.06 308.05Q515.02 308.06 515.02 308.06"
            opacity="0.67"></path>
        <path
            d="M481.22 403.54C416.17 422.32 373.23 451.47 356.52 487.91 366.05 523.84 391.29 565.45 420.23 607.56 469.08 659.98 502.54 690.84 481.84 649.19 463.06 602.52 431.12 547.5 388.03 492.6 343.79 440.35 288.23 394.84 227.89 358.37 174.35 328.28 129.19 304.5 105.9 284.84 108.84 267.63 144.17 250.27 209.22 231.5 285.55 212.72 358.17 194.3 413.23 178.97 452.75 163.33 432.12 190.69 415.24 241.98 404.72 283.11 407.24 330.52 426.02 377.19 444.8 411.69 478.05 433.61 521.12 442.91 562.26 438.6 608.11 427.55 648.73 415.23 675.71 397.73 683.61 385.42 663.85 382.03 622.56 378.14 557.55 384.76 481.22 403.54Q481.22 403.54 481.22 403.54"
            opacity="0.31"></path>
        <path
            d="M447.02 497.88C358.14 526.05 321.98 577 325.43 625.81 358.1 658.65 374.6 661.19 346.44 615.24 318.27 542.19 250.77 455.81 181.18 386.53 140.82 326.15 154.14 281.14 243.02 252.97 356.86 224.8 449.55 218.82 495.14 242.28 507.41 274.64 512.66 338.19 540.83 411.24 568.99 457.19 614.74 477.48 639.4 481.56 630.72 469.67 560.86 469.71 447.02 497.88Q447.02 497.88 447.02 497.88"
            opacity="0.68"></path>
        <path
            d="M413.06 558.36C307.77 595.92 283.15 634.32 245.6 581.23 208.04 480.72 171.77 362.73 277.06 325.17 425.29 287.62 526.46 344.72 564.02 445.23 601.57 498.32 561.29 520.81 413.06 558.36Q413.06 558.36 413.06 558.36"
            opacity="0.45"></path>
    </g>
</svg>