<svg xmlns="http://www.w3.org/2000/svg" version="1.1" xmlns:xlink="http://www.w3.org/1999/xlink" xmlns:svgjs="http://svgjs.dev/svgjs" viewBox="0 0 800 800" opacity="0.73"><defs><linearGradient x1="50%" y1="0%" x2="50%" y2="100%" id="uundulate-grad"><stop stop-color="hsl(206, 75%, 49%)" stop-opacity="1" offset="45%"></stop><stop stop-color="hsl(331, 90%, 56%)" stop-opacity="1" offset="100%"></stop></linearGradient></defs><g stroke-width="5" stroke="url(#uundulate-grad)" fill="none"><path d="M1548.8755169417768 -396.8797510571296C1708.810795136998 227.6669677441805 1707.4633153258228 540.5654252800905 1542.1549174820548 1163.711500273098C1376.8465196382876 1786.857575266105 1245.5434254656648 2432.3614047176443 755.3952072916882 2594.2214089093086C265.24698911771156 2756.081413100971 -580.9068442741601 2402.9218569532304 -810.5565297530316 1940.6395203930879C-1040.2062152319031 1478.3571838329462 -511.94606274676653 864.3586375484938 -346.92328300689144 375.2661934206217C-181.90050326701635 -113.82625070724998 -252.0698672416081 53.28306845301768 -18.44718700163321 -407.0042114206933C215.17549323834191 -867.2914912944045 447.94001882344696 -1836.222012548932 774.465582144991 -1834.1127499731886C1100.9911454665353 -1832.003487397445 1388.9402387465557 -1021.42646985844 1548.8755169417768 -396.8797510571296C1708.810795136998 227.6669677441805 1707.4633153258228 540.5654252800905 1542.1549174820548 1163.711500273098 "></path><path d="M1519.4171719185301 -376.4464439511978C1675.2515455446432 232.08625641930985 1673.9386164978569 536.961676582504 1512.8688955218786 1144.1296470885118C1351.7991745458994 1751.2976175945187 1223.8628263777032 2380.25006680371 746.2825112338285 2537.959814477639C268.70219608995376 2695.6695621515673 -555.7553851636649 2351.5653792383837 -779.516617168719 1901.1364359233735C-1003.2778491737733 1450.7074926083637 -488.5628288036403 852.452498792743 -327.77140239042865 375.900886565586C-166.97997597721712 -100.65072566157119 -235.35012549092187 62.17373916125325 -7.71777038530513 -386.31130276697786C219.9145847203115 -834.796344695209 446.71078913656766 -1778.882493609877 764.8639021165338 -1776.8273146899216C1083.0170150965 -1774.7721357699666 1363.5827982924175 -984.979144321705 1519.4171719185301 -376.4464439511978C1675.2515455446432 232.08625641930985 1673.9386164978569 536.961676582504 1512.8688955218786 1144.1296470885118 "></path><path d="M1489.9589184480183 -356.01435754839076C1641.6923875050225 236.50432439131419 1640.4140092226253 533.3567071817929 1483.5829651144359 1124.5465732007997C1326.751921006246 1715.736439219807 1202.1823188424755 2328.1375081866518 737.1699067287032 2481.6969993428456C272.15749461493033 2635.2564904990386 -530.6038345004351 2300.207680820413 -748.4766130316722 1861.632130750534C-966.3493915629092 1423.0565806806558 -465.17950330777967 840.5451393338672 -308.6194302212316 376.53435900742534C-152.0593571346833 -87.47642131901762 -218.63029218750125 71.06318916636428 3.0117377837570984 -365.61961481638696C224.65376775501545 -802.3024187991386 445.4816510024227 -1721.5441953739469 755.2623136408108 -1719.54310010978C1065.0429762791991 -1717.542004845613 1338.2254493910136 -948.5330394880953 1489.9589184480183 -356.01435754839076C1641.6923875050225 236.50432439131419 1640.4140092226253 533.3567071817929 1483.5829651144359 1124.5465732007997 "></path><path d="M1460.5005734247716 -335.5812945830837C1608.1331379126677 240.92336892581807 1606.8893103946593 529.7527143435814 1454.2969431542588 1104.964475875588C1301.7045759138582 1680.1762374075952 1180.501719754514 2276.0259261320925 728.0572106708432 2425.435160770551C275.6127015871725 2574.84439540901 -505.4523753899398 2248.850958964941 -717.4367004473597 1822.1288021401947C-929.4210255047794 1395.4066453154483 -441.79626936465354 828.6387564374918 -289.4675496047688 377.1688080117642C-137.13882984488407 -74.30114041396382 -201.91055043681502 79.95361573397531 13.741154400085179 -344.9269503032963C229.39285923698526 -769.8075163405681 444.2524213155434 -1664.2049205755166 745.6606336123536 -1662.257908967138C1047.0688459091634 -1660.3108973587593 1312.8680089368745 -912.0859580919855 1460.5005734247716 -335.5812945830837C1608.1331379126677 240.92336892581807 1606.8893103946593 529.7527143435814 1454.2969431542588 1104.964475875588 "></path><path d="M1431.0421978839468 -315.1484757584017C1574.5738578027344 245.34216931969695 1573.3645810491157 526.1484773647444 1425.010890676504 1085.382134409751C1276.6572003038918 1644.615791454758 1158.8210901489738 2223.9140999369083 718.9444840954052 2369.1730780576318C279.0678780418366 2514.432056178355 -480.3009467970227 2197.4939929688444 -686.3968183806253 1782.6252293892298C-892.4926899642279 1367.7564658096153 -418.4130659391054 816.732129400491 -270.31569950588414 377.8030128754781C-122.21833307266286 -61.126103649535025 -185.1908392037068 88.84379816096134 24.470540498834907 -324.2345299308306C234.1319202013765 -737.3128580226225 443.0231611110862 -1606.8658899177115 736.0589230663181 -1604.9729619651212C1029.09468502155 -1603.0800340125309 1287.5105379651582 -875.6391208365008 1431.0421978839468 -315.1484757584017C1574.5738578027344 245.34216931969695 1573.3645810491157 526.1484773647444 1425.010890676504 1085.382134409751 "></path><path d="M1401.5838528606996 -294.71553486340713C1541.0146082103797 249.76109178388924 1539.8398822211498 522.5443624562208 1395.724868716327 1065.7999150142268C1251.609855211504 1609.0554675722333 1137.1404910610122 2171.8023958120366 709.8317880375455 2312.9111174150257C282.5230850140788 2454.019839018014 -455.14948768652744 2146.13714904306 -655.3569057963127 1743.1217787085775C-855.5643239060981 1340.1064083740944 -395.0298319959792 804.8256244338031 -251.16381888942146 378.43733980950446C-107.29780578286363 -47.95094481479396 -168.47109745302055 97.73410265825964 35.19995711516276 -303.54198748805265C238.8710116833463 -704.8180776343647 441.7939314242069 -1549.5267371895939 726.4572430378607 -1547.6878928927918C1011.1205546515148 -1545.8490485959899 1262.15309751102 -839.1921615107035 1401.5838528606996 -294.71553486340713C1541.0146082103797 249.76109178388924 1539.8398822211498 522.5443624562208 1395.724868716327 1065.7999150142268 "></path><path d="M1372.1254773198752 -274.2828381090376C1507.4553281004469 254.17977010745562 1506.3151528756061 518.9400034070718 1366.4388162385721 1046.2174514780781C1226.5624796015381 1573.494899549084 1115.4598614554725 2119.6904475465403 700.7190614621074 2256.6489126317942C285.97826146874286 2393.6073777170477 -429.9980590936102 2094.7800609766514 -624.3170237295784 1703.6180838873006C-818.6359883655466 1312.4561067979494 -371.6466285704312 792.9188753264898 -232.0119687905368 379.07142260290584C-92.37730901064242 -34.77603012067766 -151.75138621991243 106.62416301493295 45.92934321391249 -282.84968918589925C243.61007264773752 -672.3235413867317 440.56467121974947 -1492.1878286021013 716.8555324918252 -1490.4030679610873C993.1463937639012 -1488.6183073200737 1236.7956265393032 -802.745446325531 1372.1254773198752 -274.2828381090376C1507.4553281004469 254.17977010745562 1506.3151528756061 518.9400034070718 1366.4388162385721 1046.2174514780781 "></path><path d="M1342.667132296628 -253.84977514373077C1473.8960785080917 258.59881464195996 1472.7904540476402 515.3360105688603 1337.152794278395 1026.6353541528665C1201.51513450915 1537.9346977368723 1093.7792623675105 2067.578865491981 691.6063654042478 2200.3870740595003C289.43346844098505 2333.195282627019 -404.84659998311497 2043.4233391211797 -593.277111145266 1664.1147552769608C-781.7076223074168 1284.8061714327414 -348.26339462730493 781.0124924301144 -212.860088174074 379.7058716072452C-77.4567817208432 -21.60074921562409 -135.03164446922608 115.51458958254398 56.65875983024034 -262.1570246728088C248.34916412970733 -639.8286389281611 439.33544153287016 -1434.8485538036712 707.253852463368 -1433.1178768184457C975.1722633938659 -1431.3871998332202 1211.4381860851645 -766.2983649294212 1342.667132296628 -253.84977514373077C1473.8960785080917 258.59881464195996 1472.7904540476402 515.3360105688603 1337.152794278395 1026.6353541528665 "></path><path d="M1313.2087567558033 -233.41707838936122C1440.3367983981589 263.01749296552657 1439.2657247020961 511.7316515197117 1307.8667418006398 1007.0528906167174C1176.4677588991835 1502.3741297137235 1072.0986327619707 2015.4669172264848 682.4936388288099 2144.124869276269C292.8886448956491 2272.7828213260523 -379.69517139019774 1992.0662510547713 -562.2372290785315 1624.6110604556839C-744.7792867668652 1257.1558698565964 -324.8801912017568 769.1057433228011 -193.70823807518946 380.33995440064655C-62.53628494862198 -8.425834521507795 -118.31193323611797 124.4046499392175 67.3881459289903 -241.4647263706554C253.08822509409856 -607.3341026805283 438.10618132841296 -1377.5096452161783 697.6521419173325 -1375.8330518867413C957.1981025062526 -1374.1564585573042 1186.0807151134482 -729.8516497442489 1313.2087567558033 -233.41707838936122C1440.3367983981589 263.01749296552657 1439.2657247020961 511.7316515197117 1307.8667418006398 1007.0528906167174 "></path><path d="M1283.750411732557 -212.98438163499168C1406.7775488058037 267.4361712890932 1405.7410258741302 508.1272924705627 1278.5807198404632 987.4704270805678C1151.4204138067958 1466.8135616905738 1050.418033674009 1963.3549689609881 673.38094277095 2087.8626644930373C296.3438518678911 2212.370360025086 -354.5437122797025 1940.709162988362 -531.197316494219 1585.1073656344065C-707.8509207087355 1229.5055682804514 -301.4969572586306 757.1989942154883 -174.55635745872655 380.97403719404815C-47.61575765882276 4.749080172608274 -101.59219148543173 133.29471029589104 78.11756254531826 -220.77242806850222C257.82731657606837 -574.8395664328953 436.87695164153365 -1320.1707366286857 688.0504618888754 -1318.5482269550369C939.2239721362171 -1316.9257172813882 1160.72327465931 -693.4049345590764 1283.750411732557 -212.98438163499168C1406.7775488058037 267.4361712890932 1405.7410258741302 508.1272924705627 1278.5807198404632 987.4704270805678 "></path><path d="M1254.2920667093103 -192.55156281030963C1373.218299213449 271.8549716829723 1372.2163270461642 504.52305549172615 1249.294697880286 967.8880856147316C1126.373068714408 1431.253115737737 1028.7374345860471 1911.2431427658044 664.2682467130903 2031.6005817801183C299.7990588401333 2151.9580207944327 -329.39225316920715 1889.3521969922658 -500.1574039099065 1545.603792883442C-670.9225546506058 1201.8553887746184 -278.11372331550433 745.2923671784874 -155.40447684226388 381.608242057762C-32.69523036902342 17.92411693703707 -84.87244973474549 142.18489272287684 88.84697916164612 -200.08000769603655C262.5664080580377 -542.3449081149497 435.64772195465434 -1262.8317059708806 678.448781860418 -1261.2632799530202C921.2498417661818 -1259.6948539351595 1135.3658342051713 -656.9580973035916 1254.2920667093103 -192.55156281030963C1373.218299213449 271.8549716829723 1372.2163270461642 504.52305549172615 1249.294697880286 967.8880856147316 "></path><path d="M1224.833813238798 -172.1186219153151C1339.6591411738282 276.2738941471641 1338.691719770933 500.91894058320213 1220.0087674728438 948.3058662192075C1101.3258151747543 1395.6927918552128 1007.0569270508197 1859.131438640933 655.155642207965 1975.3386211375123C303.25435736510985 2091.545803634091 -304.24070250597754 1837.995353066482 -469.1173997728596 1506.1003422027902C-633.9940970397417 1174.2053313390984 -254.7303978196437 733.3858622117996 -136.25250467306682 382.24256899178863C-17.774611526489707 31.09927577177814 -68.15261643132476 151.07519722017537 99.57648733070846 -179.38746525325837C267.3055910927419 -509.8501277266919 434.4185838205094 -1205.4925532427628 668.8471933846952 -1203.9782108806908C903.2758029488807 -1202.4638685186185 1110.0084853037672 -620.5111379777943 1224.833813238798 -172.1186219153151C1339.6591411738282 276.2738941471641 1338.691719770933 500.91894058320213 1220.0087674728438 948.3058662192075 "></path><path d="M1195.375437697973 -151.6858641257893C1306.0998610638953 280.692633505887 1305.1669904253895 497.3146425692096 1190.7227149950886 928.7234637182146C1076.278439564788 1360.1322848672198 985.37629744528 1807.0195514105926 646.042915632527 1919.0764773894366C306.7095338197739 2031.133403368281 -279.0892739130604 1786.638326035229 -438.0775177061252 1466.5967084166696C-597.0657614991901 1146.5550907981092 -231.3471943940956 721.479174139642 -117.10065457418204 382.8767128203467C-2.854114754268494 44.274251501050685 -51.43290519821676 159.96531861200515 110.3058734294583 -158.69510591594872C272.04465205713336 -477.3555304439026 433.1893236160522 -1148.153583620114 659.2454828386597 -1146.69332491383C885.3016420612673 -1145.233066207546 1084.6510143320509 -584.0643617574657 1195.375437697973 -151.6858641257893C1306.0998610638953 280.692633505887 1305.1669904253895 497.3146425692096 1190.7227149950886 928.7234637182146 "></path><path d="M1165.9170926747263 -131.25304530110725C1272.5406114715406 285.1114338997661 1271.6422915974235 493.7104055903726 1161.4366930349117 909.1411222523775C1051.2310944724002 1324.5718389143822 963.6956983573182 1754.907725215408 636.9302195746673 1862.8143946765172C310.1647407920161 1970.7210641376264 -253.93781480256507 1735.2813600391323 -407.0376051218127 1427.0931356657043C-560.1373954410603 1118.9049112922762 -207.96396045096935 709.5725471026417 -97.94877395771937 383.51091768406036C12.06641253553073 57.44928826547903 -34.713163447530405 168.85550103899072 121.03529004578627 -138.00268554348327C276.78374353910294 -444.86087212595726 431.9600939291729 -1090.8145529623089 649.6438028102023 -1089.4083779118132C867.3275116912318 -1088.0022028613175 1059.2935738779122 -547.6175245019808 1165.9170926747263 -131.25304530110725C1272.5406114715406 285.1114338997661 1271.6422915974235 493.7104055903726 1161.4366930349117 909.1411222523775 "></path><path d="M1136.4587171339017 -110.82028751158168C1238.9813313616075 289.53017325848896 1238.1175622518795 490.10610757638005 1132.1506405571567 889.5587197513846C1026.183718862434 1289.0113319263892 942.0150687517782 1702.7958379850684 627.8174929992292 1806.552250928442C313.6199172466802 1910.3086638718164 -228.78638620964784 1683.9243330078798 -375.9977230550783 1387.5895018795836C-523.2090599005087 1091.2546707512874 -184.58075702542124 697.6658590304846 -78.7969238588347 384.1450615126182C26.98690930775183 70.62426399475157 -17.99345221442229 177.7456224308205 131.764676144536 -117.31032620617361C281.5228045034944 -412.36627484316796 430.73083372471547 -1033.47558333966 640.042092264167 -1032.1234919449525C849.3533508036185 -1030.7714005502453 1033.9361029061956 -511.1707482816523 1136.4587171339017 -110.82028751158168C1238.9813313616075 289.53017325848896 1238.1175622518795 490.10610757638005 1132.1506405571567 889.5587197513846 "></path><path d="M1107.000402628233 -90.38734661658691C1205.4221122868307 293.9490957226808 1204.5928939414916 486.50199266785626 1102.8646491145578 869.9765003558605C1001.1364042876241 1253.4510080438654 920.3345001813948 1650.6841338601967 618.7048274589474 1750.290290285836C317.0751547365005 1849.8964467114752 -203.63489658157448 1632.567489082096 -344.9577799531877 1348.0860511989317C-486.2806633248009 1063.604613315767 -161.19749256471698 685.7593540637965 -59.64501272479379 384.7793884466446C41.90746711512941 83.79942282949287 -1.2736799461579267 186.6359269281188 142.4941232784421 -96.61778376339544C286.2619265030421 -379.87149445491 429.5016345554145 -976.1364306115423 630.4404427532877 -974.8384228726233C831.3792509511611 -973.5404151337042 1008.5786929696353 -474.72378895585496 1107.000402628233 -90.38734661658691C1205.4221122868307 293.9490957226808 1204.5928939414916 486.50199266785626 1102.8646491145578 869.9765003558605 "></path><path d="M1077.542027087408 -69.9546498622176C1171.8628321768974 298.3677740462474 1171.0681645959478 482.897633618707 1073.578596636803 850.3940368197113C976.089028677658 1217.8904400207157 898.6538705758549 1598.5721855947004 609.5921008835098 1694.0280855026044C320.53033119116446 1789.4839854105085 -178.48346798865737 1581.2104010156868 -313.9178978864533 1308.5823563776544C-449.3523277842493 1035.954311739622 -137.81428913916886 673.8526049564832 -40.493162625909235 385.4134712400462C56.827963887350506 96.97433752360894 15.446031286950301 195.52598728479234 153.22350937719193 -75.92548546124226C291.00098746743356 -347.3769582072771 428.27237435095685 -918.7975220240496 620.8387322072524 -917.553597940919C813.4050900635477 -916.3096738577881 983.2212219979187 -438.2770737706826 1077.542027087408 -69.9546498622176C1171.8628321768974 298.3677740462474 1171.0681645959478 482.897633618707 1073.578596636803 850.3940368197113 "></path><path d="M1048.0836515465833 -49.52170896722305C1138.3035520669644 302.78669651043924 1137.543435250404 479.2935187101832 1044.292544159048 830.8118174241874C951.0416530676919 1182.3301161381914 876.9732409703149 1546.4604814698287 600.4793743080718 1637.766124859998C323.98550764582853 1729.0717682501672 -153.33203939574014 1529.853557089903 -282.87801581971894 1269.0789056970025C-412.42399224369774 1008.304254304102 -114.43108571362075 661.9460999897954 -21.341312527024456 386.0477981740728C71.74846065957172 110.14949635835023 32.165742520058416 204.41629178209087 163.95289547594166 -55.232943018464084C295.740048431825 -314.88217781901903 427.04311414649965 -861.458369295932 611.2370216612169 -860.2685288685896C795.4309291759341 -859.0786884412471 957.8637510262022 -401.8301144448852 1048.0836515465833 -49.52170896722305C1138.3035520669644 302.78669651043924 1137.543435250404 479.2935187101832 1044.292544159048 830.8118174241874 "></path><path d="M1018.6253065233368 -29.089195318322254C1104.7443024746094 307.2051917285371 1104.018736422438 475.68897655556566 1015.0065221988709 811.2291707825698C925.9943079753039 1146.7693650095734 855.2926418823531 1494.3483500988636 591.3666782502119 1581.5037369712977C327.44071461807073 1668.6591238437322 -128.18058028524484 1478.496285918025 -251.83810323540644 1229.5750277702564C-375.49562618556797 980.6537696224877 -91.0478517704945 650.0391677770135 -2.1894319105617797 386.6816978620054C86.66898794937106 123.32422794699778 48.885484270744655 213.30616903329542 174.68231209226974 -34.54082782177966C300.4791399137947 -282.38782467685485 425.81388445962034 -804.1196438139082 601.6353416327597 -802.9838870423539C777.4567988058989 -801.8481302707997 932.5063105720637 -365.3835823651816 1018.6253065233368 -29.089195318322254C1104.7443024746094 307.2051917285371 1104.018736422438 475.68897655556566 1015.0065221988709 811.2291707825698 "></path><path d="M989.1669309825118 -8.65631545848396C1071.1850223646766 311.6240531575727 1070.4940070768941 472.0848006118856 985.7204697211159 791.6468903518892C900.946932365338 1111.208980091893 833.6120122768132 1442.2365849388361 582.253951674774 1525.241715293535C330.8958910727348 1608.2468456482343 -103.02915169232767 1427.139380957085 -220.79822116867206 1190.0715160544482C-338.5672906450164 953.0036511518113 -67.66464834494639 638.1326017751692 16.962418188322886 387.3159637608758C101.58948472159216 136.4993257465826 65.60519550385288 222.1964124954377 185.41169819101947 -13.848346414157731C305.21820087818617 -249.89310532375316 424.58462425516313 -746.7805521209468 592.0336310867242 -745.6988790051809C759.4826379182855 -744.6172058894149 907.1488396003472 -328.9366840745406 989.1669309825118 -8.65631545848396C1071.1850223646766 311.6240531575727 1070.4940070768941 472.0848006118856 985.7204697211159 791.6468903518892 "></path><path d="M959.7085859592651 11.776625436510585C1037.6257727723216 316.0429756217643 1036.9693082489284 468.48068570336136 956.4344477609393 772.0646709563653C875.8995872729497 1075.6486562093687 811.9314131888516 1390.1248808139644 573.1412556169143 1468.979754650929C334.3510980449769 1547.834628487893 -77.87769258183243 1375.7825370313012 -189.75830858435955 1150.5680653737963C-301.6389245868867 925.3535937162912 -44.28141440182014 626.2260968084809 36.114298804785676 387.9502906949024C116.51001201139138 149.67448458132367 82.32493725453901 231.086716992736 196.14111480734744 6.844196028620445C309.95729236015575 -217.3983249354951 423.3553945682838 -689.4413993928291 582.4319510582668 -688.4138099328516C741.50850754825 -687.3862204728739 881.7913991462087 -292.48972474874313 959.7085859592651 11.776625436510585C1037.6257727723216 316.0429756217643 1036.9693082489284 468.48068570336136 956.4344477609393 772.0646709563653 "></path><path d="M930.250332488753 32.209383226036266C1004.066614732701 320.46171498048716 1003.4447009736969 464.8763876893688 927.1485173534966 752.4822684553722C850.8523337332963 1040.0881492213757 790.2509056536242 1338.0129935836244 564.0286511117888 1412.7176109028537C337.80639656995345 1487.422228222083 -52.72614191860271 1324.4255100000487 -158.71830444731268 1111.0644315876752C-264.71046697602253 897.7033531753023 -20.89808890595964 614.319408736324 55.26627097398273 388.58443452346023C131.4306308539251 162.8494603105962 99.04477055795974 239.97683838456578 206.87062297640978 27.536555365929985C314.6964753948598 -184.90372765270592 422.1262564341389 -632.1024297701802 572.830362582544 -631.1289239659909C723.5344687309489 -630.1554181618017 856.4340502448044 -256.0429485284146 930.250332488753 32.209383226036266C1004.066614732701 320.46171498048716 1003.4447009736969 464.8763876893688 927.1485173534966 752.4822684553722 "></path><path d="M900.791987465506 52.64214101556206C970.5073651403461 324.88045433921025 969.9200021457311 461.27208967537604 897.8624953933197 732.899865954379C825.8049886409083 1004.5276422333823 768.5703065656623 1285.901106353284 554.9159550539289 1356.4554671547785C341.26160354219564 1427.0098279562726 -27.574682808107468 1273.0684829687957 -127.67839186300012 1071.5607978015544C-227.78210091789282 870.0531126343128 2.48514503716666 602.4127206641672 74.41815159044552 389.21857835201786C146.35115814372443 176.02443603986876 115.76451230864598 248.86695977639556 217.60003959273763 48.2289147032393C319.4355668768294 -152.40913036991674 420.8970267472597 -574.7634601475313 563.2286825540866 -573.8440379991303C705.5603383609136 -572.9246158507292 831.0766097906662 -219.59617230808612 900.791987465506 52.64214101556206C970.5073651403461 324.88045433921025 969.9200021457311 461.27208967537604 897.8624953933197 732.899865954379 "></path><path d="M871.3336424422594 73.07502087540024C936.9481155479912 329.2993157682456 936.3953033177654 457.66791373169576 868.5764734331428 713.3175855236989C800.7576435485203 968.9672573157018 746.8897074777005 1233.7893411932564 545.8032589960692 1300.1934454770158C344.71681051443784 1366.597549760775 -2.4232236976121726 1221.7115780078557 -96.63847927868761 1032.057286085746C-190.8537348597631 842.4029941636363 25.868378980292846 590.5061546623228 93.57003220690831 389.8528442508882C161.27168543352377 189.19953383945358 132.48425405933222 257.7572032385376 228.32945620906548 68.92139611086122C324.174658358799 -119.91441101681494 419.6677970603804 -517.42436845457 553.6270025256295 -516.5590299619571C687.5862079908784 -515.6936914693445 805.7191693365276 -183.1492740174449 871.3336424422594 73.07502087540024C936.9481155479912 329.2993157682456 936.3953033177654 457.66791373169576 868.5764734331428 713.3175855236989 "></path><path d="M841.8752669014348 93.50796177039479C903.3888354380581 333.7182382324372 902.8705739722213 454.06379882317196 839.2904209553878 693.7353661281745C775.7102679385541 933.4069334331775 725.2090778721608 1181.6776370683847 536.6905324206313 1243.9314848344093C348.1719869691018 1306.1853326004339 22.728204895304998 1170.3547340820717 -65.59859721195323 992.5538354050939C-153.92539931921152 814.7529367281163 49.25158240584096 578.5996496956348 112.72188230579297 390.4871711849146C176.19218220574487 202.37469267419476 149.20396529244044 266.64750773583614 239.05884230781544 89.61393855363951C328.91371932319043 -87.419630628557 418.4385368559231 -460.08521572645225 544.0252919795939 -459.2739608896278C669.6120471032648 -458.4627060528034 780.3616983648112 -146.70231469164764 841.8752669014348 93.50796177039479C903.3888354380581 333.7182382324372 902.8705739722213 454.06379882317196 839.2904209553878 693.7353661281745 "></path><path d="M812.4169218781881 113.94053645445183C869.8295858457031 338.13679448569155 869.3458751442556 450.45931770371044 810.004398995211 674.1527805217131C750.6629228461661 897.8462433397158 703.5284787841988 1129.565566732576 527.5778363627716 1187.6691579808655C351.627193941344 1245.772749229155 47.879664005800294 1118.9975239453504 -34.55868462764073 953.0500185135045C-116.99703326108181 787.1025130816586 72.6348163489672 566.6927785180092 131.87376292225565 391.1211319080037C191.1127094955442 215.54948529799844 165.92370704312668 275.53744602219706 249.7882589241433 110.30611478548019C333.65281080516 -54.925216451236565 417.20930716904377 -402.7464292092721 534.4236119511366 -401.98925802823595C651.6379167332293 -401.23208684719987 755.0042579106725 -110.25572157678778 812.4169218781881 113.94053645445183C869.8295858457031 338.13679448569155 869.3458751442556 450.45931770371044 810.004398995211 674.1527805217131 "></path><path d="M782.9585463373633 134.37344683186825C836.2703057357703 342.5556864323048 835.8211457987118 446.8551722776083 780.7183465174558 654.5705306086106C725.6155472362002 862.285888939613 681.8478491786591 1077.4538320901258 518.4651097873336 1131.4071668206805C355.08237039600806 1185.360501551235 73.03109259871746 1067.640649501988 -3.5188025609063516 913.546537315274C-80.06869772053017 759.45242512856 96.01801977451532 554.7862430337427 151.02561302114032 391.75542832445217C206.0332062677653 228.7246136151614 182.6434182762348 284.42772000191724 260.51764502289313 130.99862671068024C338.39187176955147 -22.430466580556754 415.98004696458645 -345.40730699873257 524.8219014051011 -344.7042194734847C633.6637558456159 -344.0011319482369 729.6467869389562 -73.80879276856854 782.9585463373633 134.37344683186825C836.2703057357703 342.5556864323048 835.8211457987118 446.8551722776083 780.7183465174558 654.5705306086106 "></path><path d="M753.5001707965384 154.8062656565503C802.7110256258372 346.97448682618415 802.2964164531677 443.25093529877176 751.4322940397008 634.988189142774C700.5681716262338 826.7254429867764 660.1672195731193 1025.342005894942 509.3523832118956 1075.1450841077617C358.53754685067213 1124.9481623205813 98.18252119163463 1016.2836835058918 27.521079505828027 874.0429645643096C-43.14036217997858 731.8022456227272 119.40122320006338 542.8796159967419 170.17746312002498 392.38963318816604C220.95370303998652 241.89965037959018 199.3631295093429 293.31790242890315 271.247031121643 151.69104708314603C343.1309327339429 10.064191737388683 414.75078676012913 -288.0682763409274 515.2201908590657 -287.4192724714679C615.6895949580024 -286.77026860200834 704.2893159672394 -37.361955513083785 753.5001707965384 154.8062656565503C802.7110256258372 346.97448682618415 802.2964164531677 443.25093529877176 751.4322940397008 634.988189142774 "></path><path d="M724.0418257732917 175.23902344607598C769.1517760334823 351.3932261849071 768.771717625202 439.6466372847791 722.1462720795239 615.4057866417811C675.5208265338459 791.1649359987832 638.4866204851575 973.2301186646018 500.2396871540359 1018.8829403596865C361.9927538229142 1064.535762054771 123.33398030212993 964.926656474639 58.56099209014053 834.5393307781887C-6.21199612184887 704.1520050817385 142.78445714318963 530.9729279245853 189.32934373648777 393.0237770167239C235.87423032978586 255.07462610886262 216.08287126002915 302.20802382073293 281.97644773797083 172.38340642045546C347.8700242159125 42.55878902017798 413.5215570732498 -230.7293067182785 505.61851083060844 -230.13438650460728C597.7154645879671 -229.53946629093605 678.9318755131011 -0.9151792927550559 724.0418257732917 175.23902344607598C769.1517760334823 351.3932261849071 768.771717625202 439.6466372847791 722.1462720795239 615.4057866417811 "></path><path d="M694.5834807500449 195.67190330591427C735.5925264411273 355.8120876139426 735.2470187972361 436.04246134109906 692.860250119347 595.8235062111007C650.473481441458 755.6045510811027 616.8060213971957 921.1183535045743 491.1269910961761 962.6209186819237C365.4479607951564 1004.1234838592734 148.48543941262523 913.5697515136987 89.60090467445303 795.0358190623804C30.7163699362809 676.5018866110618 166.16769108631587 519.0663619227407 208.4812243529505 393.65804291559414C250.7947576195852 268.24972390844755 232.8026130107155 311.0982672828751 292.7058643542988 193.07588782807738C352.6091156978821 75.05350837327967 412.29232738637063 -173.3902150253171 496.01683080215116 -172.84937846743418C579.7413342179318 -172.30854190955125 653.5744350589626 35.531718997885946 694.5834807500449 195.67190330591427C735.5925264411273 355.8120876139426 735.2470187972361 436.04246134109906 692.860250119347 595.8235062111007 "></path><path d="M665.1251357267984 216.10475264817433C702.0332768487724 360.23091852539983 701.7223199692703 432.43825487984066 663.5742281591702 576.2411952628422C625.42613634907 720.0441356458441 595.125422309234 869.0065578269684 482.0142950383163 906.3588664865831C368.9031677673986 943.7111751461978 173.63689852312052 862.2128160351806 120.64081725876554 755.5322768289939C67.64473599441061 648.8517376228074 189.55092502944206 507.15976540331826 227.63310496941324 394.29227829688637C265.7152849093844 281.42479119045436 249.52235476140174 319.98848022743914 303.43528097062676 213.76833871812119C357.3482071798518 107.54819720880323 411.0630976994913 -116.05115384993383 486.4151507736939 -115.5644009478392C561.7672038478963 -115.07764804574452 628.2169946048241 71.97858677094894 665.1251357267984 216.10475264817433C702.0332768487724 360.23091852539983 701.7223199692703 432.43825487984066 663.5742281591702 576.2411952628422 "></path><path d="M635.6667907035516 236.53751043770012C668.4740272564175 364.6496578841228 668.1976211413046 428.8339568658479 634.2882061989933 556.6587927618494C600.378791256682 684.4836286578509 573.4448232212721 816.8946705966282 472.90159898045647 850.0967227385079C372.3583747396408 883.2987748803876 198.78835763361582 810.8557890039278 151.68072984307804 716.028643042873C104.57310205254032 621.2014970818182 212.9341589725683 495.2530773311614 246.78498558587603 394.9264221254441C280.63581219918376 294.5997669197268 266.242096512088 328.8786016192688 314.1646975869546 234.4606980554306C362.08729866182136 140.04279449159253 409.83386801261213 -58.71218422728492 476.8134707452366 -58.279514980978604C543.7930734778611 -57.84684573467223 602.8595541506857 108.42536299127755 635.6667907035516 236.53751043770012C668.4740272564175 364.6496578841228 668.1976211413046 428.8339568658479 634.2882061989933 556.6587927618494 "></path><path d="M606.2084304215159 256.97042081511654C634.9147624052734 369.0685498307364 634.6729070545497 425.22981143974584 605.0021689800274 537.0765428487472C575.3314309055049 648.9232742577485 551.7642088745213 764.7829359541786 463.7888876638076 793.8347315783235C375.8135664530939 822.8865272024682 223.93980148532205 759.4989145605659 182.72062716860148 676.5251618446429C141.50145285188097 593.5514091287199 236.31737765690548 483.3465418468952 265.9368509435497 395.56071854189247C295.556324230194 307.77489523688985 282.9618230039852 337.7688755989891 324.8940989444935 255.15320998063066C366.8263748850019 172.53754436227234 408.60462306694376 -1.3730620167453935 467.21177545799014 -0.9944764262273793C525.8189278490365 -0.6158908357093082 577.5020984377581 144.87229179949674 606.2084304215159 256.97042081511654C634.9147624052734 369.0685498307364 634.6729070545497 425.22981143974584 605.0021689800274 537.0765428487472 "></path><path d="M576.7500853982692 277.4031480870642C601.3555128129186 373.48725867188114 601.1482082265838 421.62548290817494 575.7161470198504 517.4941098301761C550.2840858131169 613.3627367521773 530.0836097865597 712.6710182062601 454.6761916059478 737.5725573126699C379.2687734253361 762.4740964190796 249.0912605958173 708.1418570117349 213.76053975291399 637.0214975409439C178.42981891001068 565.9011380701527 259.7006116000317 471.43982325716 285.0887315600125 396.1948318528721C310.47685151999326 320.94984044858415 299.68156475467146 346.65896647324064 335.6235155608215 275.8455388003621C371.56546636697146 205.0321111274834 407.37539338006457 55.96587708832533 457.61009542953286 56.290379023055095C507.8447974790013 56.61488095778486 552.1446579836197 181.31903750224717 576.7500853982692 277.4031480870642C601.3555128129186 373.48725867188114 601.1482082265838 421.62548290817494 575.7161470198504 517.4941098301761 "></path><path d="M547.2917251162335 297.8359974293244C567.7962479617746 377.9060895833385 567.6234941398291 418.0212764469168 546.4301098008845 497.91179888191755C525.23672546194 577.8023213169186 508.4029954398088 660.5592225286543 445.5634802892989 681.3105051173291C382.72396513878914 702.0617877060039 274.2427044475235 656.7849215332166 244.80043707843748 597.5179553075574C215.3581697093514 538.2509890818981 283.0838302843689 459.53322673773755 304.24059691768616 396.8290672341643C325.39736355100354 334.12490773059096 316.4012912465687 355.5491794178047 346.35291691836034 296.5379896904059C376.304542590152 237.52679996300702 406.1461484343963 113.3049382637086 448.0084001422865 113.57535654265013C489.87065185017684 113.84577482159159 526.7872022706922 217.76590527531016 547.2917251162335 297.8359974293244C567.7962479617746 377.9060895833385 567.6234941398291 418.0212764469168 546.4301098008845 497.91179888191755 "></path><path d="M517.8333800929868 318.2688162540063C534.2369983694197 382.3248899772177 534.0987953118632 414.41703946808025 517.1440878407076 478.3294574160809C500.18938036955194 542.2418753640817 486.722396351847 608.4473963334704 436.45078423143923 625.0484224044102C386.17917211103133 641.64944847535 299.3941635580188 605.4279555371202 275.84034966275 558.0143825565928C252.2865357674811 510.60080957606533 306.4670642274951 447.62659970073696 323.39247753414895 397.4632720978783C340.3178908408028 347.29994449501964 333.12103299725493 364.4393618447907 357.08233353468825 317.23041006287156C381.0436340721216 270.0214582809525 404.916918747517 170.64396892151376 438.40672011382924 170.86030354466698C471.8965214801415 171.07663816782014 501.42976181655376 254.21274253079503 517.8333800929868 318.2688162540063C534.2369983694197 382.3248899772177 534.0987953118632 414.41703946808025 517.1440878407076 478.3294574160809 "></path><path d="M488.3750655873182 338.7015740435321C500.67777929464296 386.74362933594057 500.5741270014755 410.8127414540875 487.8580963981087 458.74705491508803C475.14206579474205 506.6813683760886 465.04182778146344 556.3355091031301 427.3381186911575 568.786278656335C389.63440960085165 581.2370482095398 324.54565318609224 554.0709285058674 306.8802927646406 518.510748770472C289.21493234318893 482.95056903507634 329.85032868819945 435.71991162858 342.54438866818987 398.09741592643604C355.2384486481802 360.4749202242921 349.84080526551935 373.3294832366203 367.81178066859434 337.92276940018104C385.7827560716693 302.5160555637417 403.6877195782159 227.98293854416266 428.80507060295 228.14518951152758C453.92242162768423 228.30744047889243 476.07235187999345 290.6595187511236 488.3750655873182 338.7015740435321C500.67777929464296 386.74362933594057 500.5741270014755 410.8127414540875 487.8580963981087 458.74705491508803 "></path><path d="M458.9166900464934 359.13436235063597C467.11849918470983 391.16239921224167 467.0493976559316 407.20847395767294 458.5720439203538 439.16468293167327C450.09469018477597 471.1208919056737 443.3611981759235 504.223652390368 418.2253921157196 512.524165425838C393.08958605551567 520.8246784613078 349.6970817790094 502.7139319921929 337.920174831375 479.00714550192924C326.1432678837406 455.3003590116655 353.2335321137476 423.8132540740013 361.6962387670745 398.73159027257196C370.1589454204014 373.64992647114263 366.56051649862746 382.21963514602817 378.5411667673441 358.6151592550686C390.5218170360608 335.01068336410907 402.4584593737585 285.3219386843897 419.2033600569146 285.4301059959663C435.94826074007074 285.53827330754285 450.7148809082769 327.1063254890303 458.9166900464934 359.13436235063597C467.11849918470983 391.16239921224167 467.0493976559316 407.20847395767294 458.5720439203538 439.16468293167327 "></path><path d="M429.45836028203576 379.56718117531796C433.559264851144 395.58119960612083 433.5247140867549 403.60423697883647 429.28603721896593 419.58234146583663C425.0473603511771 435.56044595283686 421.6806143467508 452.111826195184 409.11271131664887 456.262082712919C396.54480828654687 460.4123392306539 374.84855614829377 451.35696599609645 368.96010267447656 439.5035727509646C363.07164920065935 427.65017950583274 376.6167813156628 411.90662703700065 380.8481346423263 399.36579513628595C385.0794879689898 386.8249632355713 383.2802735081028 391.1098175730141 389.27059864246115 379.3075796275343C395.2609237768195 367.5053416820545 401.2292449456683 342.66096934219485 409.60169528724634 342.71505299798315C417.97414562882443 342.76913665377145 425.3574557129275 363.55316274451513 429.45836028203576 379.56718117531796C433.559264851144 395.58119960612083 433.5247140867549 403.60423697883647 429.28603721896593 419.58234146583663 "></path></g></svg>